<?xml version="1.0" encoding="utf-8" standalone="no"?>
<!DOCTYPE svg PUBLIC "-//W3C//DTD SVG 1.1//EN"
  "http://www.w3.org/Graphics/SVG/1.1/DTD/svg11.dtd">
<svg xmlns:xlink="http://www.w3.org/1999/xlink" width="409.614125pt" height="303.85pt" viewBox="0 0 409.614125 303.85" xmlns="http://www.w3.org/2000/svg" version="1.1">
 <metadata>
  <rdf:RDF xmlns:dc="http://purl.org/dc/elements/1.1/" xmlns:cc="http://creativecommons.org/ns#" xmlns:rdf="http://www.w3.org/1999/02/22-rdf-syntax-ns#">
   <cc:Work>
    <dc:type rdf:resource="http://purl.org/dc/dcmitype/StillImage"/>
    <dc:date>2024-10-03T22:11:12.872015</dc:date>
    <dc:format>image/svg+xml</dc:format>
    <dc:creator>
     <cc:Agent>
      <dc:title>Matplotlib v3.8.4, https://matplotlib.org/</dc:title>
     </cc:Agent>
    </dc:creator>
   </cc:Work>
  </rdf:RDF>
 </metadata>
 <defs>
  <style type="text/css">*{stroke-linejoin: round; stroke-linecap: butt}</style>
 </defs>
 <g id="figure_1">
  <g id="patch_1">
   <path d="M 0 303.85 
L 409.614125 303.85 
L 409.614125 0 
L 0 0 
z
" style="fill: #ffffff"/>
  </g>
  <g id="axes_1">
   <g id="patch_2">
    <path d="M 63.324375 254.68 
L 397.960375 254.68 
L 397.960375 7.2 
L 63.324375 7.2 
z
" style="fill: #ffffff"/>
   </g>
   <g id="matplotlib.axis_1">
    <g id="xtick_1">
     <g id="line2d_1">
      <path d="M 63.324375 254.68 
L 63.324375 7.2 
" clip-path="url(#p1c75499db1)" style="fill: none; stroke: #b0b0b0; stroke-opacity: 0.3; stroke-width: 0.8; stroke-linecap: square"/>
     </g>
     <g id="line2d_2">
      <defs>
       <path id="m6aae18bc3f" d="M 0 0 
L 0 3.5 
" style="stroke: #000000; stroke-width: 0.8"/>
      </defs>
      <g>
       <use xlink:href="#m6aae18bc3f" x="63.324375" y="254.68" style="stroke: #000000; stroke-width: 0.8"/>
      </g>
     </g>
     <g id="text_1">
      <!-- 50 -->
      <g transform="translate(54.416875 272.317812) scale(0.14 -0.14)">
       <defs>
        <path id="DejaVuSans-35" d="M 691 4666 
L 3169 4666 
L 3169 4134 
L 1269 4134 
L 1269 2991 
Q 1406 3038 1543 3061 
Q 1681 3084 1819 3084 
Q 2600 3084 3056 2656 
Q 3513 2228 3513 1497 
Q 3513 744 3044 326 
Q 2575 -91 1722 -91 
Q 1428 -91 1123 -41 
Q 819 9 494 109 
L 494 744 
Q 775 591 1075 516 
Q 1375 441 1709 441 
Q 2250 441 2565 725 
Q 2881 1009 2881 1497 
Q 2881 1984 2565 2268 
Q 2250 2553 1709 2553 
Q 1456 2553 1204 2497 
Q 953 2441 691 2322 
L 691 4666 
z
" transform="scale(0.015625)"/>
        <path id="DejaVuSans-30" d="M 2034 4250 
Q 1547 4250 1301 3770 
Q 1056 3291 1056 2328 
Q 1056 1369 1301 889 
Q 1547 409 2034 409 
Q 2525 409 2770 889 
Q 3016 1369 3016 2328 
Q 3016 3291 2770 3770 
Q 2525 4250 2034 4250 
z
M 2034 4750 
Q 2819 4750 3233 4129 
Q 3647 3509 3647 2328 
Q 3647 1150 3233 529 
Q 2819 -91 2034 -91 
Q 1250 -91 836 529 
Q 422 1150 422 2328 
Q 422 3509 836 4129 
Q 1250 4750 2034 4750 
z
" transform="scale(0.015625)"/>
       </defs>
       <use xlink:href="#DejaVuSans-35"/>
       <use xlink:href="#DejaVuSans-30" x="63.623047"/>
      </g>
     </g>
    </g>
    <g id="xtick_2">
     <g id="line2d_3">
      <path d="M 130.251575 254.68 
L 130.251575 7.2 
" clip-path="url(#p1c75499db1)" style="fill: none; stroke: #b0b0b0; stroke-opacity: 0.3; stroke-width: 0.8; stroke-linecap: square"/>
     </g>
     <g id="line2d_4">
      <g>
       <use xlink:href="#m6aae18bc3f" x="130.251575" y="254.68" style="stroke: #000000; stroke-width: 0.8"/>
      </g>
     </g>
     <g id="text_2">
      <!-- 40 -->
      <g transform="translate(121.344075 272.317812) scale(0.14 -0.14)">
       <defs>
        <path id="DejaVuSans-34" d="M 2419 4116 
L 825 1625 
L 2419 1625 
L 2419 4116 
z
M 2253 4666 
L 3047 4666 
L 3047 1625 
L 3713 1625 
L 3713 1100 
L 3047 1100 
L 3047 0 
L 2419 0 
L 2419 1100 
L 313 1100 
L 313 1709 
L 2253 4666 
z
" transform="scale(0.015625)"/>
       </defs>
       <use xlink:href="#DejaVuSans-34"/>
       <use xlink:href="#DejaVuSans-30" x="63.623047"/>
      </g>
     </g>
    </g>
    <g id="xtick_3">
     <g id="line2d_5">
      <path d="M 197.178775 254.68 
L 197.178775 7.2 
" clip-path="url(#p1c75499db1)" style="fill: none; stroke: #b0b0b0; stroke-opacity: 0.3; stroke-width: 0.8; stroke-linecap: square"/>
     </g>
     <g id="line2d_6">
      <g>
       <use xlink:href="#m6aae18bc3f" x="197.178775" y="254.68" style="stroke: #000000; stroke-width: 0.8"/>
      </g>
     </g>
     <g id="text_3">
      <!-- 30 -->
      <g transform="translate(188.271275 272.317812) scale(0.14 -0.14)">
       <defs>
        <path id="DejaVuSans-33" d="M 2597 2516 
Q 3050 2419 3304 2112 
Q 3559 1806 3559 1356 
Q 3559 666 3084 287 
Q 2609 -91 1734 -91 
Q 1441 -91 1130 -33 
Q 819 25 488 141 
L 488 750 
Q 750 597 1062 519 
Q 1375 441 1716 441 
Q 2309 441 2620 675 
Q 2931 909 2931 1356 
Q 2931 1769 2642 2001 
Q 2353 2234 1838 2234 
L 1294 2234 
L 1294 2753 
L 1863 2753 
Q 2328 2753 2575 2939 
Q 2822 3125 2822 3475 
Q 2822 3834 2567 4026 
Q 2313 4219 1838 4219 
Q 1578 4219 1281 4162 
Q 984 4106 628 3988 
L 628 4550 
Q 988 4650 1302 4700 
Q 1616 4750 1894 4750 
Q 2613 4750 3031 4423 
Q 3450 4097 3450 3541 
Q 3450 3153 3228 2886 
Q 3006 2619 2597 2516 
z
" transform="scale(0.015625)"/>
       </defs>
       <use xlink:href="#DejaVuSans-33"/>
       <use xlink:href="#DejaVuSans-30" x="63.623047"/>
      </g>
     </g>
    </g>
    <g id="xtick_4">
     <g id="line2d_7">
      <path d="M 264.105975 254.68 
L 264.105975 7.2 
" clip-path="url(#p1c75499db1)" style="fill: none; stroke: #b0b0b0; stroke-opacity: 0.3; stroke-width: 0.8; stroke-linecap: square"/>
     </g>
     <g id="line2d_8">
      <g>
       <use xlink:href="#m6aae18bc3f" x="264.105975" y="254.68" style="stroke: #000000; stroke-width: 0.8"/>
      </g>
     </g>
     <g id="text_4">
      <!-- 20 -->
      <g transform="translate(255.198475 272.317812) scale(0.14 -0.14)">
       <defs>
        <path id="DejaVuSans-32" d="M 1228 531 
L 3431 531 
L 3431 0 
L 469 0 
L 469 531 
Q 828 903 1448 1529 
Q 2069 2156 2228 2338 
Q 2531 2678 2651 2914 
Q 2772 3150 2772 3378 
Q 2772 3750 2511 3984 
Q 2250 4219 1831 4219 
Q 1534 4219 1204 4116 
Q 875 4013 500 3803 
L 500 4441 
Q 881 4594 1212 4672 
Q 1544 4750 1819 4750 
Q 2544 4750 2975 4387 
Q 3406 4025 3406 3419 
Q 3406 3131 3298 2873 
Q 3191 2616 2906 2266 
Q 2828 2175 2409 1742 
Q 1991 1309 1228 531 
z
" transform="scale(0.015625)"/>
       </defs>
       <use xlink:href="#DejaVuSans-32"/>
       <use xlink:href="#DejaVuSans-30" x="63.623047"/>
      </g>
     </g>
    </g>
    <g id="xtick_5">
     <g id="line2d_9">
      <path d="M 331.033175 254.68 
L 331.033175 7.2 
" clip-path="url(#p1c75499db1)" style="fill: none; stroke: #b0b0b0; stroke-opacity: 0.3; stroke-width: 0.8; stroke-linecap: square"/>
     </g>
     <g id="line2d_10">
      <g>
       <use xlink:href="#m6aae18bc3f" x="331.033175" y="254.68" style="stroke: #000000; stroke-width: 0.8"/>
      </g>
     </g>
     <g id="text_5">
      <!-- 10 -->
      <g transform="translate(322.125675 272.317812) scale(0.14 -0.14)">
       <defs>
        <path id="DejaVuSans-31" d="M 794 531 
L 1825 531 
L 1825 4091 
L 703 3866 
L 703 4441 
L 1819 4666 
L 2450 4666 
L 2450 531 
L 3481 531 
L 3481 0 
L 794 0 
L 794 531 
z
" transform="scale(0.015625)"/>
       </defs>
       <use xlink:href="#DejaVuSans-31"/>
       <use xlink:href="#DejaVuSans-30" x="63.623047"/>
      </g>
     </g>
    </g>
    <g id="xtick_6">
     <g id="line2d_11">
      <path d="M 397.960375 254.68 
L 397.960375 7.2 
" clip-path="url(#p1c75499db1)" style="fill: none; stroke: #b0b0b0; stroke-opacity: 0.3; stroke-width: 0.8; stroke-linecap: square"/>
     </g>
     <g id="line2d_12">
      <g>
       <use xlink:href="#m6aae18bc3f" x="397.960375" y="254.68" style="stroke: #000000; stroke-width: 0.8"/>
      </g>
     </g>
     <g id="text_6">
      <!-- 0 -->
      <g transform="translate(393.506625 272.317812) scale(0.14 -0.14)">
       <use xlink:href="#DejaVuSans-30"/>
      </g>
     </g>
    </g>
    <g id="text_7">
     <!-- $t$ -->
     <g transform="translate(227.042375 292.906562) scale(0.18 -0.18)">
      <defs>
       <path id="DejaVuSans-Oblique-74" d="M 2706 3500 
L 2619 3053 
L 1472 3053 
L 1100 1153 
Q 1081 1047 1072 975 
Q 1063 903 1063 863 
Q 1063 663 1183 572 
Q 1303 481 1569 481 
L 2150 481 
L 2053 0 
L 1503 0 
Q 991 0 739 200 
Q 488 400 488 806 
Q 488 878 497 964 
Q 506 1050 525 1153 
L 897 3053 
L 409 3053 
L 500 3500 
L 978 3500 
L 1172 4494 
L 1747 4494 
L 1556 3500 
L 2706 3500 
z
" transform="scale(0.015625)"/>
      </defs>
      <use xlink:href="#DejaVuSans-Oblique-74" transform="translate(0 0.78125)"/>
     </g>
    </g>
   </g>
   <g id="matplotlib.axis_2">
    <g id="ytick_1">
     <g id="line2d_13">
      <path d="M 63.324375 244.392219 
L 397.960375 244.392219 
" clip-path="url(#p1c75499db1)" style="fill: none; stroke: #b0b0b0; stroke-opacity: 0.3; stroke-width: 0.8; stroke-linecap: square"/>
     </g>
     <g id="line2d_14">
      <defs>
       <path id="ma3e1644a8a" d="M 0 0 
L -3.5 0 
" style="stroke: #000000; stroke-width: 0.8"/>
      </defs>
      <g>
       <use xlink:href="#ma3e1644a8a" x="63.324375" y="244.392219" style="stroke: #000000; stroke-width: 0.8"/>
      </g>
     </g>
     <g id="text_8">
      <!-- 0.0 -->
      <g transform="translate(34.06 249.711125) scale(0.14 -0.14)">
       <defs>
        <path id="DejaVuSans-2e" d="M 684 794 
L 1344 794 
L 1344 0 
L 684 0 
L 684 794 
z
" transform="scale(0.015625)"/>
       </defs>
       <use xlink:href="#DejaVuSans-30"/>
       <use xlink:href="#DejaVuSans-2e" x="63.623047"/>
       <use xlink:href="#DejaVuSans-30" x="95.410156"/>
      </g>
     </g>
    </g>
    <g id="ytick_2">
     <g id="line2d_15">
      <path d="M 63.324375 209.416291 
L 397.960375 209.416291 
" clip-path="url(#p1c75499db1)" style="fill: none; stroke: #b0b0b0; stroke-opacity: 0.3; stroke-width: 0.8; stroke-linecap: square"/>
     </g>
     <g id="line2d_16">
      <g>
       <use xlink:href="#ma3e1644a8a" x="63.324375" y="209.416291" style="stroke: #000000; stroke-width: 0.8"/>
      </g>
     </g>
     <g id="text_9">
      <!-- 0.2 -->
      <g transform="translate(34.06 214.735197) scale(0.14 -0.14)">
       <use xlink:href="#DejaVuSans-30"/>
       <use xlink:href="#DejaVuSans-2e" x="63.623047"/>
       <use xlink:href="#DejaVuSans-32" x="95.410156"/>
      </g>
     </g>
    </g>
    <g id="ytick_3">
     <g id="line2d_17">
      <path d="M 63.324375 174.440363 
L 397.960375 174.440363 
" clip-path="url(#p1c75499db1)" style="fill: none; stroke: #b0b0b0; stroke-opacity: 0.3; stroke-width: 0.8; stroke-linecap: square"/>
     </g>
     <g id="line2d_18">
      <g>
       <use xlink:href="#ma3e1644a8a" x="63.324375" y="174.440363" style="stroke: #000000; stroke-width: 0.8"/>
      </g>
     </g>
     <g id="text_10">
      <!-- 0.4 -->
      <g transform="translate(34.06 179.759269) scale(0.14 -0.14)">
       <use xlink:href="#DejaVuSans-30"/>
       <use xlink:href="#DejaVuSans-2e" x="63.623047"/>
       <use xlink:href="#DejaVuSans-34" x="95.410156"/>
      </g>
     </g>
    </g>
    <g id="ytick_4">
     <g id="line2d_19">
      <path d="M 63.324375 139.464435 
L 397.960375 139.464435 
" clip-path="url(#p1c75499db1)" style="fill: none; stroke: #b0b0b0; stroke-opacity: 0.3; stroke-width: 0.8; stroke-linecap: square"/>
     </g>
     <g id="line2d_20">
      <g>
       <use xlink:href="#ma3e1644a8a" x="63.324375" y="139.464435" style="stroke: #000000; stroke-width: 0.8"/>
      </g>
     </g>
     <g id="text_11">
      <!-- 0.6 -->
      <g transform="translate(34.06 144.783341) scale(0.14 -0.14)">
       <defs>
        <path id="DejaVuSans-36" d="M 2113 2584 
Q 1688 2584 1439 2293 
Q 1191 2003 1191 1497 
Q 1191 994 1439 701 
Q 1688 409 2113 409 
Q 2538 409 2786 701 
Q 3034 994 3034 1497 
Q 3034 2003 2786 2293 
Q 2538 2584 2113 2584 
z
M 3366 4563 
L 3366 3988 
Q 3128 4100 2886 4159 
Q 2644 4219 2406 4219 
Q 1781 4219 1451 3797 
Q 1122 3375 1075 2522 
Q 1259 2794 1537 2939 
Q 1816 3084 2150 3084 
Q 2853 3084 3261 2657 
Q 3669 2231 3669 1497 
Q 3669 778 3244 343 
Q 2819 -91 2113 -91 
Q 1303 -91 875 529 
Q 447 1150 447 2328 
Q 447 3434 972 4092 
Q 1497 4750 2381 4750 
Q 2619 4750 2861 4703 
Q 3103 4656 3366 4563 
z
" transform="scale(0.015625)"/>
       </defs>
       <use xlink:href="#DejaVuSans-30"/>
       <use xlink:href="#DejaVuSans-2e" x="63.623047"/>
       <use xlink:href="#DejaVuSans-36" x="95.410156"/>
      </g>
     </g>
    </g>
    <g id="ytick_5">
     <g id="line2d_21">
      <path d="M 63.324375 104.488507 
L 397.960375 104.488507 
" clip-path="url(#p1c75499db1)" style="fill: none; stroke: #b0b0b0; stroke-opacity: 0.3; stroke-width: 0.8; stroke-linecap: square"/>
     </g>
     <g id="line2d_22">
      <g>
       <use xlink:href="#ma3e1644a8a" x="63.324375" y="104.488507" style="stroke: #000000; stroke-width: 0.8"/>
      </g>
     </g>
     <g id="text_12">
      <!-- 0.8 -->
      <g transform="translate(34.06 109.807413) scale(0.14 -0.14)">
       <defs>
        <path id="DejaVuSans-38" d="M 2034 2216 
Q 1584 2216 1326 1975 
Q 1069 1734 1069 1313 
Q 1069 891 1326 650 
Q 1584 409 2034 409 
Q 2484 409 2743 651 
Q 3003 894 3003 1313 
Q 3003 1734 2745 1975 
Q 2488 2216 2034 2216 
z
M 1403 2484 
Q 997 2584 770 2862 
Q 544 3141 544 3541 
Q 544 4100 942 4425 
Q 1341 4750 2034 4750 
Q 2731 4750 3128 4425 
Q 3525 4100 3525 3541 
Q 3525 3141 3298 2862 
Q 3072 2584 2669 2484 
Q 3125 2378 3379 2068 
Q 3634 1759 3634 1313 
Q 3634 634 3220 271 
Q 2806 -91 2034 -91 
Q 1263 -91 848 271 
Q 434 634 434 1313 
Q 434 1759 690 2068 
Q 947 2378 1403 2484 
z
M 1172 3481 
Q 1172 3119 1398 2916 
Q 1625 2713 2034 2713 
Q 2441 2713 2670 2916 
Q 2900 3119 2900 3481 
Q 2900 3844 2670 4047 
Q 2441 4250 2034 4250 
Q 1625 4250 1398 4047 
Q 1172 3844 1172 3481 
z
" transform="scale(0.015625)"/>
       </defs>
       <use xlink:href="#DejaVuSans-30"/>
       <use xlink:href="#DejaVuSans-2e" x="63.623047"/>
       <use xlink:href="#DejaVuSans-38" x="95.410156"/>
      </g>
     </g>
    </g>
    <g id="ytick_6">
     <g id="line2d_23">
      <path d="M 63.324375 69.512579 
L 397.960375 69.512579 
" clip-path="url(#p1c75499db1)" style="fill: none; stroke: #b0b0b0; stroke-opacity: 0.3; stroke-width: 0.8; stroke-linecap: square"/>
     </g>
     <g id="line2d_24">
      <g>
       <use xlink:href="#ma3e1644a8a" x="63.324375" y="69.512579" style="stroke: #000000; stroke-width: 0.8"/>
      </g>
     </g>
     <g id="text_13">
      <!-- 1.0 -->
      <g transform="translate(34.06 74.831486) scale(0.14 -0.14)">
       <use xlink:href="#DejaVuSans-31"/>
       <use xlink:href="#DejaVuSans-2e" x="63.623047"/>
       <use xlink:href="#DejaVuSans-30" x="95.410156"/>
      </g>
     </g>
    </g>
    <g id="ytick_7">
     <g id="line2d_25">
      <path d="M 63.324375 34.536651 
L 397.960375 34.536651 
" clip-path="url(#p1c75499db1)" style="fill: none; stroke: #b0b0b0; stroke-opacity: 0.3; stroke-width: 0.8; stroke-linecap: square"/>
     </g>
     <g id="line2d_26">
      <g>
       <use xlink:href="#ma3e1644a8a" x="63.324375" y="34.536651" style="stroke: #000000; stroke-width: 0.8"/>
      </g>
     </g>
     <g id="text_14">
      <!-- 1.2 -->
      <g transform="translate(34.06 39.855558) scale(0.14 -0.14)">
       <use xlink:href="#DejaVuSans-31"/>
       <use xlink:href="#DejaVuSans-2e" x="63.623047"/>
       <use xlink:href="#DejaVuSans-32" x="95.410156"/>
      </g>
     </g>
    </g>
    <g id="text_15">
     <!-- $\hat{D}_t$ -->
     <g transform="translate(26.316563 140.75) rotate(-90) scale(0.18 -0.18)">
      <defs>
       <path id="DejaVuSans-302" d="M -1831 5119 
L -1369 5119 
L -603 3944 
L -1038 3944 
L -1600 4709 
L -2163 3944 
L -2597 3944 
L -1831 5119 
z
M -1600 3584 
L -1600 3584 
z
" transform="scale(0.015625)"/>
       <path id="DejaVuSans-Oblique-44" d="M 1081 4666 
L 2438 4666 
Q 3519 4666 4070 4208 
Q 4622 3750 4622 2847 
Q 4622 2250 4412 1698 
Q 4203 1147 3834 769 
Q 3463 381 2891 190 
Q 2319 0 1538 0 
L 172 0 
L 1081 4666 
z
M 1613 4147 
L 909 519 
L 1734 519 
Q 2794 519 3375 1128 
Q 3956 1738 3956 2847 
Q 3956 3519 3581 3833 
Q 3206 4147 2406 4147 
L 1613 4147 
z
" transform="scale(0.015625)"/>
      </defs>
      <use xlink:href="#DejaVuSans-302" transform="translate(72.828613 30.015625)"/>
      <use xlink:href="#DejaVuSans-Oblique-44" transform="translate(0 0.609375)"/>
      <use xlink:href="#DejaVuSans-Oblique-74" transform="translate(77.958984 -15.796875) scale(0.7)"/>
     </g>
    </g>
   </g>
   <g id="line2d_27">
    <path d="M 397.960375 62.510563 
L 391.267655 62.681343 
L 384.574935 67.975551 
L 377.882215 72.074293 
L 371.189495 75.831473 
L 364.496775 79.588652 
L 357.804055 83.260442 
L 351.111335 87.017621 
L 344.418615 90.774801 
L 337.725895 94.617371 
L 331.033175 98.459942 
L 324.340455 102.473293 
L 317.647735 106.486644 
L 310.955015 110.670776 
L 304.262295 114.854908 
L 297.569575 119.12443 
L 290.876855 123.393953 
L 284.184135 127.748866 
L 277.491415 132.189169 
L 270.798695 136.629472 
L 264.105975 141.069776 
L 257.413255 145.510079 
L 250.720535 150.035773 
L 244.027815 154.476076 
L 237.335095 158.959075 
L 230.642375 163.399378 
L 223.949655 167.754291 
L 217.256935 172.194594 
L 210.564215 176.378726 
L 203.871495 180.690944 
L 197.178775 184.74699 
L 190.486055 188.717646 
L 183.793335 192.560216 
L 177.100615 196.18931 
L 170.407895 199.818404 
L 163.715175 203.16998 
L 157.022455 206.478859 
L 150.329735 209.616958 
L 143.637015 212.477538 
L 136.944295 215.850461 
L 130.251575 217.47288 
L 123.558855 221.443536 
L 116.866135 223.001911 
L 110.173415 225.563625 
L 103.480695 228.659029 
L 96.787975 229.566302 
L 90.095255 233.846498 
L 83.402535 236.883196 
L 76.709815 239.610354 
L 70.017095 242.58968 
L 63.324375 242.831175 
" clip-path="url(#p1c75499db1)" style="fill: none; stroke: #939393; stroke-opacity: 0.7; stroke-linecap: square"/>
   </g>
   <g id="line2d_28">
    <path d="M 397.960375 32.282344 
L 391.267655 32.453125 
L 384.574935 38.088894 
L 377.882215 42.358417 
L 371.189495 46.627939 
L 364.496775 50.726681 
L 357.804055 54.825422 
L 351.111335 59.094945 
L 344.418615 63.364467 
L 337.725895 67.633989 
L 331.033175 72.159683 
L 324.340455 76.770768 
L 317.647735 81.467242 
L 310.955015 86.334498 
L 304.262295 91.287144 
L 297.569575 96.23979 
L 290.876855 101.363217 
L 284.184135 106.572034 
L 277.491415 111.780852 
L 270.798695 117.075059 
L 264.105975 122.454658 
L 257.413255 127.834256 
L 250.720535 133.299245 
L 244.027815 138.678843 
L 237.335095 144.143832 
L 230.642375 149.52343 
L 223.949655 154.817638 
L 217.256935 160.111846 
L 210.564215 165.320663 
L 203.871495 170.44409 
L 197.178775 175.439431 
L 190.486055 180.306687 
L 183.793335 185.045857 
L 177.100615 189.699636 
L 170.407895 193.969159 
L 163.715175 198.452157 
L 157.022455 202.337423 
L 150.329735 206.542902 
L 143.637015 210.171996 
L 136.944295 214.014567 
L 130.251575 217.088623 
L 123.558855 220.973888 
L 116.866135 223.567623 
L 110.173415 226.81246 
L 103.480695 229.854495 
L 96.787975 229.950559 
L 90.095255 236.061313 
L 83.402535 237.667721 
L 76.709815 240.683071 
L 70.017095 242.936578 
L 63.324375 243.140715 
" clip-path="url(#p1c75499db1)" style="fill: none; stroke: #939393; stroke-opacity: 0.7; stroke-linecap: square"/>
   </g>
   <g id="line2d_29">
    <path d="M 397.960375 41.846074 
L 391.267655 42.016855 
L 384.574935 47.311063 
L 377.882215 51.409804 
L 371.189495 55.166984 
L 364.496775 59.094945 
L 357.804055 62.852124 
L 351.111335 66.780085 
L 344.418615 70.793436 
L 337.725895 74.806787 
L 331.033175 78.990919 
L 324.340455 83.260442 
L 317.647735 87.615355 
L 310.955015 92.055658 
L 304.262295 96.581352 
L 297.569575 101.277826 
L 290.876855 105.974301 
L 284.184135 110.756166 
L 277.491415 115.623422 
L 270.798695 120.490677 
L 264.105975 125.443323 
L 257.413255 130.48136 
L 250.720535 135.434006 
L 244.027815 140.472042 
L 237.335095 145.510079 
L 230.642375 150.462725 
L 223.949655 155.500761 
L 217.256935 160.368017 
L 210.564215 165.320663 
L 203.871495 170.145223 
L 197.178775 174.927089 
L 190.486055 179.580868 
L 183.793335 184.149257 
L 177.100615 188.58956 
L 170.407895 192.944473 
L 163.715175 197.043215 
L 157.022455 201.334085 
L 150.329735 205.069917 
L 143.637015 208.97653 
L 136.944295 212.541581 
L 130.251575 215.999894 
L 123.558855 219.586293 
L 116.866135 222.585633 
L 110.173415 226.129336 
L 103.480695 227.218065 
L 96.787975 232.405534 
L 90.095255 233.504937 
L 83.402535 237.641036 
L 76.709815 239.863857 
L 70.017095 242.939247 
L 63.324375 243.303491 
" clip-path="url(#p1c75499db1)" style="fill: none; stroke: #939393; stroke-opacity: 0.7; stroke-linecap: square"/>
   </g>
   <g id="line2d_30">
    <path d="M 397.960375 63.706029 
L 391.267655 63.87681 
L 384.574935 68.829456 
L 377.882215 72.842807 
L 371.189495 76.599987 
L 364.496775 80.271776 
L 357.804055 84.028956 
L 351.111335 87.700745 
L 344.418615 91.543315 
L 337.725895 95.471276 
L 331.033175 99.399236 
L 324.340455 103.497978 
L 317.647735 107.59672 
L 310.955015 111.780852 
L 304.262295 116.135764 
L 297.569575 120.490677 
L 290.876855 124.84559 
L 284.184135 129.371284 
L 277.491415 133.811587 
L 270.798695 138.422672 
L 264.105975 142.948365 
L 257.413255 147.55945 
L 250.720535 152.170534 
L 244.027815 156.696228 
L 237.335095 161.264617 
L 230.642375 165.790311 
L 223.949655 170.230614 
L 217.256935 174.670917 
L 210.564215 179.02583 
L 203.871495 183.295353 
L 197.178775 187.479485 
L 190.486055 191.492836 
L 183.793335 195.548882 
L 177.100615 199.263366 
L 170.407895 203.16998 
L 163.715175 206.286731 
L 157.022455 210.171996 
L 150.329735 212.797753 
L 143.637015 216.448194 
L 136.944295 219.543598 
L 130.251575 222.105312 
L 123.558855 224.538939 
L 116.866135 227.741081 
L 110.173415 228.264098 
L 103.480695 232.031951 
L 96.787975 234.214745 
L 90.095255 235.810479 
L 83.402535 239.033968 
L 76.709815 241.037975 
L 70.017095 243.108694 
L 63.324375 243.176739 
" clip-path="url(#p1c75499db1)" style="fill: none; stroke: #939393; stroke-opacity: 0.7; stroke-linecap: square"/>
   </g>
   <g id="line2d_31">
    <path d="M 397.960375 18.449091 
L 391.267655 18.619872 
L 384.574935 24.938765 
L 377.882215 29.891411 
L 371.189495 34.502495 
L 364.496775 39.11358 
L 357.804055 43.724664 
L 351.111335 48.335748 
L 344.418615 53.117613 
L 337.725895 57.899478 
L 331.033175 62.852124 
L 324.340455 67.80477 
L 317.647735 73.013588 
L 310.955015 78.307796 
L 304.262295 83.602003 
L 297.569575 88.981602 
L 290.876855 94.44659 
L 284.184135 100.08236 
L 277.491415 105.632739 
L 270.798695 111.268509 
L 264.105975 116.989669 
L 257.413255 122.625439 
L 250.720535 128.346599 
L 244.027815 133.982368 
L 237.335095 139.618138 
L 230.642375 145.253908 
L 223.949655 150.804287 
L 217.256935 156.269275 
L 210.564215 161.734264 
L 203.871495 166.985777 
L 197.178775 172.194594 
L 190.486055 177.189935 
L 183.793335 182.185277 
L 177.100615 186.753666 
L 170.407895 191.492836 
L 163.715175 195.762358 
L 157.022455 200.031881 
L 150.329735 204.301403 
L 143.637015 207.781064 
L 136.944295 212.20002 
L 130.251575 214.868471 
L 123.558855 219.202036 
L 116.866135 222.083964 
L 110.173415 225.755753 
L 103.480695 229.918538 
L 96.787975 233.43022 
L 90.095255 235.655708 
L 83.402535 238.873861 
L 76.709815 241.008622 
L 70.017095 243.138047 
L 63.324375 243.376873 
" clip-path="url(#p1c75499db1)" style="fill: none; stroke: #939393; stroke-opacity: 0.7; stroke-linecap: square"/>
   </g>
   <g id="line2d_32">
    <path d="M 397.960375 27.329698 
L 391.267655 27.329698 
L 384.574935 32.623905 
L 377.882215 36.722647 
L 371.189495 40.650608 
L 364.496775 44.578568 
L 357.804055 48.506529 
L 351.111335 52.60527 
L 344.418615 56.874793 
L 337.725895 61.144315 
L 331.033175 65.413838 
L 324.340455 70.024922 
L 317.647735 74.636006 
L 310.955015 79.417871 
L 304.262295 84.285127 
L 297.569575 89.323164 
L 290.876855 94.3612 
L 284.184135 99.570017 
L 277.491415 104.778835 
L 270.798695 110.073043 
L 264.105975 115.452641 
L 257.413255 120.832239 
L 250.720535 126.211837 
L 244.027815 131.676826 
L 237.335095 137.056424 
L 230.642375 142.521413 
L 223.949655 147.901011 
L 217.256935 153.195219 
L 210.564215 158.489427 
L 203.871495 163.655549 
L 197.178775 168.736281 
L 190.486055 173.603537 
L 183.793335 178.513487 
L 177.100615 183.081876 
L 170.407895 187.650265 
L 163.715175 191.919788 
L 157.022455 195.805053 
L 150.329735 200.245357 
L 143.637015 203.575584 
L 136.944295 208.122626 
L 130.251575 210.791077 
L 123.558855 215.701028 
L 116.866135 217.47288 
L 110.173415 222.96989 
L 103.480695 222.585633 
L 96.787975 230.12134 
L 90.095255 231.925213 
L 83.402535 236.51495 
L 76.709815 239.135369 
L 70.017095 242.381541 
L 63.324375 242.34018 
" clip-path="url(#p1c75499db1)" style="fill: none; stroke: #939393; stroke-opacity: 0.7; stroke-linecap: square"/>
   </g>
   <g id="line2d_33">
    <path d="M 397.960375 38.601237 
L 391.267655 38.772018 
L 384.574935 44.237006 
L 377.882215 48.67731 
L 371.189495 52.946832 
L 364.496775 57.045574 
L 357.804055 61.315096 
L 351.111335 65.413838 
L 344.418615 69.768751 
L 337.725895 74.123664 
L 331.033175 78.563967 
L 324.340455 83.175051 
L 317.647735 87.786135 
L 310.955015 92.48261 
L 304.262295 97.264475 
L 297.569575 102.217121 
L 290.876855 107.169767 
L 284.184135 112.207804 
L 277.491415 117.24584 
L 270.798695 122.369267 
L 264.105975 127.492694 
L 257.413255 132.616121 
L 250.720535 137.824939 
L 244.027815 142.948365 
L 237.335095 148.071792 
L 230.642375 153.195219 
L 223.949655 158.275951 
L 217.256935 163.228597 
L 210.564215 168.181243 
L 203.871495 173.005803 
L 197.178775 177.744973 
L 190.486055 182.356058 
L 183.793335 186.796361 
L 177.100615 191.27936 
L 170.407895 195.164625 
L 163.715175 199.562233 
L 157.022455 203.234022 
L 150.329735 207.09794 
L 143.637015 210.534906 
L 136.944295 213.907828 
L 130.251575 217.10997 
L 123.558855 219.778422 
L 116.866135 223.781099 
L 110.173415 224.635004 
L 103.480695 228.904526 
L 96.787975 232.074646 
L 90.095255 235.383526 
L 83.402535 238.847176 
L 76.709815 241.518296 
L 70.017095 243.283477 
L 63.324375 243.430909 
" clip-path="url(#p1c75499db1)" style="fill: none; stroke: #939393; stroke-opacity: 0.7; stroke-linecap: square"/>
   </g>
   <g id="line2d_34">
    <path d="M 397.960375 46.79872 
L 391.267655 46.969501 
L 384.574935 52.263709 
L 377.882215 56.36245 
L 371.189495 60.290411 
L 364.496775 64.047591 
L 357.804055 67.975551 
L 351.111335 71.818121 
L 344.418615 75.831473 
L 337.725895 79.844824 
L 331.033175 83.943565 
L 324.340455 88.213088 
L 317.647735 92.568001 
L 310.955015 97.008304 
L 304.262295 101.533998 
L 297.569575 106.230472 
L 290.876855 110.926947 
L 284.184135 115.708812 
L 277.491415 120.576068 
L 270.798695 125.528714 
L 264.105975 130.48136 
L 257.413255 135.519396 
L 250.720535 140.557433 
L 244.027815 145.595469 
L 237.335095 150.718896 
L 230.642375 155.671542 
L 223.949655 160.752274 
L 217.256935 165.662225 
L 210.564215 170.614871 
L 203.871495 175.311346 
L 197.178775 180.135906 
L 190.486055 184.576209 
L 183.793335 189.187294 
L 177.100615 193.32873 
L 170.407895 197.769034 
L 163.715175 201.526213 
L 157.022455 205.688998 
L 150.329735 208.97653 
L 143.637015 212.947186 
L 136.944295 216.063937 
L 130.251575 218.604303 
L 123.558855 223.407516 
L 116.866135 223.95188 
L 110.173415 229.384847 
L 103.480695 230.452228 
L 96.787975 232.789792 
L 90.095255 237.166052 
L 83.402535 239.66906 
L 76.709815 241.510291 
L 70.017095 243.176072 
L 63.324375 243.254124 
" clip-path="url(#p1c75499db1)" style="fill: none; stroke: #939393; stroke-opacity: 0.7; stroke-linecap: square"/>
   </g>
   <g id="line2d_35">
    <path d="M 397.960375 20.669243 
L 391.267655 20.840023 
L 384.574935 26.817355 
L 377.882215 31.59922 
L 371.189495 36.039523 
L 364.496775 40.309046 
L 357.804055 44.749349 
L 351.111335 49.189653 
L 344.418615 53.800737 
L 337.725895 58.411821 
L 331.033175 63.193686 
L 324.340455 68.146332 
L 317.647735 73.098978 
L 310.955015 78.137015 
L 304.262295 83.431223 
L 297.569575 88.64004 
L 290.876855 94.019638 
L 284.184135 99.484627 
L 277.491415 105.035006 
L 270.798695 110.585385 
L 264.105975 116.221155 
L 257.413255 121.856925 
L 250.720535 127.578085 
L 244.027815 133.213854 
L 237.335095 138.849624 
L 230.642375 144.485394 
L 223.949655 150.035773 
L 217.256935 155.500761 
L 210.564215 160.96575 
L 203.871495 166.259958 
L 197.178775 171.511471 
L 190.486055 176.592202 
L 183.793335 181.587544 
L 177.100615 186.369409 
L 170.407895 191.023188 
L 163.715175 195.506187 
L 157.022455 199.690319 
L 150.329735 203.895798 
L 143.637015 207.695673 
L 136.944295 211.495548 
L 130.251575 215.210033 
L 123.558855 218.817779 
L 116.866135 221.806445 
L 110.173415 225.905187 
L 103.480695 228.712398 
L 96.787975 231.487587 
L 90.095255 235.99727 
L 83.402535 238.489604 
L 76.709815 241.379537 
L 70.017095 243.193417 
L 63.324375 243.35219 
" clip-path="url(#p1c75499db1)" style="fill: none; stroke: #939393; stroke-opacity: 0.7; stroke-linecap: square"/>
   </g>
   <g id="line2d_36">
    <path d="M 397.960375 52.43449 
L 391.267655 52.43449 
L 384.574935 57.557917 
L 377.882215 61.656658 
L 371.189495 65.413838 
L 364.496775 69.171018 
L 357.804055 73.098978 
L 351.111335 76.941548 
L 344.418615 80.869509 
L 337.725895 84.88286 
L 331.033175 89.066992 
L 324.340455 93.251124 
L 317.647735 97.606037 
L 310.955015 101.96095 
L 304.262295 106.486644 
L 297.569575 111.012338 
L 290.876855 115.708812 
L 284.184135 120.405287 
L 277.491415 125.187152 
L 270.798695 129.969017 
L 264.105975 134.836273 
L 257.413255 139.703528 
L 250.720535 144.570784 
L 244.027815 149.52343 
L 237.335095 154.390686 
L 230.642375 159.300636 
L 223.949655 164.125197 
L 217.256935 168.992452 
L 210.564215 173.688927 
L 203.871495 178.385402 
L 197.178775 182.953791 
L 190.486055 187.436789 
L 183.793335 191.749007 
L 177.100615 195.975834 
L 170.407895 199.989185 
L 163.715175 203.917146 
L 157.022455 207.54624 
L 150.329735 211.047248 
L 143.637015 214.505562 
L 136.944295 217.067275 
L 130.251575 220.845802 
L 123.558855 222.724392 
L 116.866135 225.958556 
L 110.173415 229.064633 
L 103.480695 231.765106 
L 96.787975 234.801804 
L 90.095255 237.032629 
L 83.402535 239.18607 
L 76.709815 241.550318 
L 70.017095 243.216766 
L 63.324375 243.288814 
" clip-path="url(#p1c75499db1)" style="fill: none; stroke: #939393; stroke-opacity: 0.7; stroke-linecap: square"/>
   </g>
   <g id="patch_3">
    <path d="M 63.324375 254.68 
L 63.324375 7.2 
" style="fill: none; stroke: #000000; stroke-width: 0.8; stroke-linejoin: miter; stroke-linecap: square"/>
   </g>
   <g id="patch_4">
    <path d="M 397.960375 254.68 
L 397.960375 7.2 
" style="fill: none; stroke: #000000; stroke-width: 0.8; stroke-linejoin: miter; stroke-linecap: square"/>
   </g>
   <g id="patch_5">
    <path d="M 63.324375 254.68 
L 397.960375 254.68 
" style="fill: none; stroke: #000000; stroke-width: 0.8; stroke-linejoin: miter; stroke-linecap: square"/>
   </g>
   <g id="patch_6">
    <path d="M 63.324375 7.2 
L 397.960375 7.2 
" style="fill: none; stroke: #000000; stroke-width: 0.8; stroke-linejoin: miter; stroke-linecap: square"/>
   </g>
  </g>
 </g>
 <defs>
  <clipPath id="p1c75499db1">
   <rect x="63.324375" y="7.2" width="334.636" height="247.48"/>
  </clipPath>
 </defs>
</svg>
