<?xml version="1.0" encoding="utf-8" standalone="no"?>
<!DOCTYPE svg PUBLIC "-//W3C//DTD SVG 1.1//EN"
  "http://www.w3.org/Graphics/SVG/1.1/DTD/svg11.dtd">
<svg xmlns:xlink="http://www.w3.org/1999/xlink" width="409.930625pt" height="303.85pt" viewBox="0 0 409.930625 303.85" xmlns="http://www.w3.org/2000/svg" version="1.1">
 <metadata>
  <rdf:RDF xmlns:dc="http://purl.org/dc/elements/1.1/" xmlns:cc="http://creativecommons.org/ns#" xmlns:rdf="http://www.w3.org/1999/02/22-rdf-syntax-ns#">
   <cc:Work>
    <dc:type rdf:resource="http://purl.org/dc/dcmitype/StillImage"/>
    <dc:date>2024-10-03T22:11:13.119777</dc:date>
    <dc:format>image/svg+xml</dc:format>
    <dc:creator>
     <cc:Agent>
      <dc:title>Matplotlib v3.8.4, https://matplotlib.org/</dc:title>
     </cc:Agent>
    </dc:creator>
   </cc:Work>
  </rdf:RDF>
 </metadata>
 <defs>
  <style type="text/css">*{stroke-linejoin: round; stroke-linecap: butt}</style>
 </defs>
 <g id="figure_1">
  <g id="patch_1">
   <path d="M 0 303.85 
L 409.930625 303.85 
L 409.930625 0 
L 0 0 
z
" style="fill: #ffffff"/>
  </g>
  <g id="axes_1">
   <g id="patch_2">
    <path d="M 90.766875 254.68 
L 398.276875 254.68 
L 398.276875 7.2 
L 90.766875 7.2 
z
" style="fill: #ffffff"/>
   </g>
   <g id="matplotlib.axis_1">
    <g id="xtick_1">
     <g id="line2d_1">
      <path d="M 90.766875 254.68 
L 90.766875 7.2 
" clip-path="url(#p5dcca6de19)" style="fill: none; stroke: #b0b0b0; stroke-opacity: 0.3; stroke-width: 0.8; stroke-linecap: square"/>
     </g>
     <g id="line2d_2">
      <defs>
       <path id="m3d907d9013" d="M 0 0 
L 0 3.5 
" style="stroke: #000000; stroke-width: 0.8"/>
      </defs>
      <g>
       <use xlink:href="#m3d907d9013" x="90.766875" y="254.68" style="stroke: #000000; stroke-width: 0.8"/>
      </g>
     </g>
     <g id="text_1">
      <!-- 50 -->
      <g transform="translate(81.859375 272.317812) scale(0.14 -0.14)">
       <defs>
        <path id="DejaVuSans-35" d="M 691 4666 
L 3169 4666 
L 3169 4134 
L 1269 4134 
L 1269 2991 
Q 1406 3038 1543 3061 
Q 1681 3084 1819 3084 
Q 2600 3084 3056 2656 
Q 3513 2228 3513 1497 
Q 3513 744 3044 326 
Q 2575 -91 1722 -91 
Q 1428 -91 1123 -41 
Q 819 9 494 109 
L 494 744 
Q 775 591 1075 516 
Q 1375 441 1709 441 
Q 2250 441 2565 725 
Q 2881 1009 2881 1497 
Q 2881 1984 2565 2268 
Q 2250 2553 1709 2553 
Q 1456 2553 1204 2497 
Q 953 2441 691 2322 
L 691 4666 
z
" transform="scale(0.015625)"/>
        <path id="DejaVuSans-30" d="M 2034 4250 
Q 1547 4250 1301 3770 
Q 1056 3291 1056 2328 
Q 1056 1369 1301 889 
Q 1547 409 2034 409 
Q 2525 409 2770 889 
Q 3016 1369 3016 2328 
Q 3016 3291 2770 3770 
Q 2525 4250 2034 4250 
z
M 2034 4750 
Q 2819 4750 3233 4129 
Q 3647 3509 3647 2328 
Q 3647 1150 3233 529 
Q 2819 -91 2034 -91 
Q 1250 -91 836 529 
Q 422 1150 422 2328 
Q 422 3509 836 4129 
Q 1250 4750 2034 4750 
z
" transform="scale(0.015625)"/>
       </defs>
       <use xlink:href="#DejaVuSans-35"/>
       <use xlink:href="#DejaVuSans-30" x="63.623047"/>
      </g>
     </g>
    </g>
    <g id="xtick_2">
     <g id="line2d_3">
      <path d="M 152.268875 254.68 
L 152.268875 7.2 
" clip-path="url(#p5dcca6de19)" style="fill: none; stroke: #b0b0b0; stroke-opacity: 0.3; stroke-width: 0.8; stroke-linecap: square"/>
     </g>
     <g id="line2d_4">
      <g>
       <use xlink:href="#m3d907d9013" x="152.268875" y="254.68" style="stroke: #000000; stroke-width: 0.8"/>
      </g>
     </g>
     <g id="text_2">
      <!-- 40 -->
      <g transform="translate(143.361375 272.317812) scale(0.14 -0.14)">
       <defs>
        <path id="DejaVuSans-34" d="M 2419 4116 
L 825 1625 
L 2419 1625 
L 2419 4116 
z
M 2253 4666 
L 3047 4666 
L 3047 1625 
L 3713 1625 
L 3713 1100 
L 3047 1100 
L 3047 0 
L 2419 0 
L 2419 1100 
L 313 1100 
L 313 1709 
L 2253 4666 
z
" transform="scale(0.015625)"/>
       </defs>
       <use xlink:href="#DejaVuSans-34"/>
       <use xlink:href="#DejaVuSans-30" x="63.623047"/>
      </g>
     </g>
    </g>
    <g id="xtick_3">
     <g id="line2d_5">
      <path d="M 213.770875 254.68 
L 213.770875 7.2 
" clip-path="url(#p5dcca6de19)" style="fill: none; stroke: #b0b0b0; stroke-opacity: 0.3; stroke-width: 0.8; stroke-linecap: square"/>
     </g>
     <g id="line2d_6">
      <g>
       <use xlink:href="#m3d907d9013" x="213.770875" y="254.68" style="stroke: #000000; stroke-width: 0.8"/>
      </g>
     </g>
     <g id="text_3">
      <!-- 30 -->
      <g transform="translate(204.863375 272.317812) scale(0.14 -0.14)">
       <defs>
        <path id="DejaVuSans-33" d="M 2597 2516 
Q 3050 2419 3304 2112 
Q 3559 1806 3559 1356 
Q 3559 666 3084 287 
Q 2609 -91 1734 -91 
Q 1441 -91 1130 -33 
Q 819 25 488 141 
L 488 750 
Q 750 597 1062 519 
Q 1375 441 1716 441 
Q 2309 441 2620 675 
Q 2931 909 2931 1356 
Q 2931 1769 2642 2001 
Q 2353 2234 1838 2234 
L 1294 2234 
L 1294 2753 
L 1863 2753 
Q 2328 2753 2575 2939 
Q 2822 3125 2822 3475 
Q 2822 3834 2567 4026 
Q 2313 4219 1838 4219 
Q 1578 4219 1281 4162 
Q 984 4106 628 3988 
L 628 4550 
Q 988 4650 1302 4700 
Q 1616 4750 1894 4750 
Q 2613 4750 3031 4423 
Q 3450 4097 3450 3541 
Q 3450 3153 3228 2886 
Q 3006 2619 2597 2516 
z
" transform="scale(0.015625)"/>
       </defs>
       <use xlink:href="#DejaVuSans-33"/>
       <use xlink:href="#DejaVuSans-30" x="63.623047"/>
      </g>
     </g>
    </g>
    <g id="xtick_4">
     <g id="line2d_7">
      <path d="M 275.272875 254.68 
L 275.272875 7.2 
" clip-path="url(#p5dcca6de19)" style="fill: none; stroke: #b0b0b0; stroke-opacity: 0.3; stroke-width: 0.8; stroke-linecap: square"/>
     </g>
     <g id="line2d_8">
      <g>
       <use xlink:href="#m3d907d9013" x="275.272875" y="254.68" style="stroke: #000000; stroke-width: 0.8"/>
      </g>
     </g>
     <g id="text_4">
      <!-- 20 -->
      <g transform="translate(266.365375 272.317812) scale(0.14 -0.14)">
       <defs>
        <path id="DejaVuSans-32" d="M 1228 531 
L 3431 531 
L 3431 0 
L 469 0 
L 469 531 
Q 828 903 1448 1529 
Q 2069 2156 2228 2338 
Q 2531 2678 2651 2914 
Q 2772 3150 2772 3378 
Q 2772 3750 2511 3984 
Q 2250 4219 1831 4219 
Q 1534 4219 1204 4116 
Q 875 4013 500 3803 
L 500 4441 
Q 881 4594 1212 4672 
Q 1544 4750 1819 4750 
Q 2544 4750 2975 4387 
Q 3406 4025 3406 3419 
Q 3406 3131 3298 2873 
Q 3191 2616 2906 2266 
Q 2828 2175 2409 1742 
Q 1991 1309 1228 531 
z
" transform="scale(0.015625)"/>
       </defs>
       <use xlink:href="#DejaVuSans-32"/>
       <use xlink:href="#DejaVuSans-30" x="63.623047"/>
      </g>
     </g>
    </g>
    <g id="xtick_5">
     <g id="line2d_9">
      <path d="M 336.774875 254.68 
L 336.774875 7.2 
" clip-path="url(#p5dcca6de19)" style="fill: none; stroke: #b0b0b0; stroke-opacity: 0.3; stroke-width: 0.8; stroke-linecap: square"/>
     </g>
     <g id="line2d_10">
      <g>
       <use xlink:href="#m3d907d9013" x="336.774875" y="254.68" style="stroke: #000000; stroke-width: 0.8"/>
      </g>
     </g>
     <g id="text_5">
      <!-- 10 -->
      <g transform="translate(327.867375 272.317812) scale(0.14 -0.14)">
       <defs>
        <path id="DejaVuSans-31" d="M 794 531 
L 1825 531 
L 1825 4091 
L 703 3866 
L 703 4441 
L 1819 4666 
L 2450 4666 
L 2450 531 
L 3481 531 
L 3481 0 
L 794 0 
L 794 531 
z
" transform="scale(0.015625)"/>
       </defs>
       <use xlink:href="#DejaVuSans-31"/>
       <use xlink:href="#DejaVuSans-30" x="63.623047"/>
      </g>
     </g>
    </g>
    <g id="xtick_6">
     <g id="line2d_11">
      <path d="M 398.276875 254.68 
L 398.276875 7.2 
" clip-path="url(#p5dcca6de19)" style="fill: none; stroke: #b0b0b0; stroke-opacity: 0.3; stroke-width: 0.8; stroke-linecap: square"/>
     </g>
     <g id="line2d_12">
      <g>
       <use xlink:href="#m3d907d9013" x="398.276875" y="254.68" style="stroke: #000000; stroke-width: 0.8"/>
      </g>
     </g>
     <g id="text_6">
      <!-- 0 -->
      <g transform="translate(393.823125 272.317812) scale(0.14 -0.14)">
       <use xlink:href="#DejaVuSans-30"/>
      </g>
     </g>
    </g>
    <g id="text_7">
     <!-- $t$ -->
     <g transform="translate(240.921875 292.906562) scale(0.18 -0.18)">
      <defs>
       <path id="DejaVuSans-Oblique-74" d="M 2706 3500 
L 2619 3053 
L 1472 3053 
L 1100 1153 
Q 1081 1047 1072 975 
Q 1063 903 1063 863 
Q 1063 663 1183 572 
Q 1303 481 1569 481 
L 2150 481 
L 2053 0 
L 1503 0 
Q 991 0 739 200 
Q 488 400 488 806 
Q 488 878 497 964 
Q 506 1050 525 1153 
L 897 3053 
L 409 3053 
L 500 3500 
L 978 3500 
L 1172 4494 
L 1747 4494 
L 1556 3500 
L 2706 3500 
z
" transform="scale(0.015625)"/>
      </defs>
      <use xlink:href="#DejaVuSans-Oblique-74" transform="translate(0 0.78125)"/>
     </g>
    </g>
   </g>
   <g id="matplotlib.axis_2">
    <g id="ytick_1">
     <g id="line2d_13">
      <path d="M 90.766875 248.660337 
L 398.276875 248.660337 
" clip-path="url(#p5dcca6de19)" style="fill: none; stroke: #b0b0b0; stroke-opacity: 0.3; stroke-width: 0.8; stroke-linecap: square"/>
     </g>
     <g id="line2d_14">
      <defs>
       <path id="m038bd28d64" d="M 0 0 
L -3.5 0 
" style="stroke: #000000; stroke-width: 0.8"/>
      </defs>
      <g>
       <use xlink:href="#m038bd28d64" x="90.766875" y="248.660337" style="stroke: #000000; stroke-width: 0.8"/>
      </g>
     </g>
     <g id="text_8">
      <!-- 0.0000 -->
      <g transform="translate(34.78 253.979243) scale(0.14 -0.14)">
       <defs>
        <path id="DejaVuSans-2e" d="M 684 794 
L 1344 794 
L 1344 0 
L 684 0 
L 684 794 
z
" transform="scale(0.015625)"/>
       </defs>
       <use xlink:href="#DejaVuSans-30"/>
       <use xlink:href="#DejaVuSans-2e" x="63.623047"/>
       <use xlink:href="#DejaVuSans-30" x="95.410156"/>
       <use xlink:href="#DejaVuSans-30" x="159.033203"/>
       <use xlink:href="#DejaVuSans-30" x="222.65625"/>
       <use xlink:href="#DejaVuSans-30" x="286.279297"/>
      </g>
     </g>
    </g>
    <g id="ytick_2">
     <g id="line2d_15">
      <path d="M 90.766875 207.966812 
L 398.276875 207.966812 
" clip-path="url(#p5dcca6de19)" style="fill: none; stroke: #b0b0b0; stroke-opacity: 0.3; stroke-width: 0.8; stroke-linecap: square"/>
     </g>
     <g id="line2d_16">
      <g>
       <use xlink:href="#m038bd28d64" x="90.766875" y="207.966812" style="stroke: #000000; stroke-width: 0.8"/>
      </g>
     </g>
     <g id="text_9">
      <!-- 0.0005 -->
      <g transform="translate(34.78 213.285719) scale(0.14 -0.14)">
       <use xlink:href="#DejaVuSans-30"/>
       <use xlink:href="#DejaVuSans-2e" x="63.623047"/>
       <use xlink:href="#DejaVuSans-30" x="95.410156"/>
       <use xlink:href="#DejaVuSans-30" x="159.033203"/>
       <use xlink:href="#DejaVuSans-30" x="222.65625"/>
       <use xlink:href="#DejaVuSans-35" x="286.279297"/>
      </g>
     </g>
    </g>
    <g id="ytick_3">
     <g id="line2d_17">
      <path d="M 90.766875 167.273288 
L 398.276875 167.273288 
" clip-path="url(#p5dcca6de19)" style="fill: none; stroke: #b0b0b0; stroke-opacity: 0.3; stroke-width: 0.8; stroke-linecap: square"/>
     </g>
     <g id="line2d_18">
      <g>
       <use xlink:href="#m038bd28d64" x="90.766875" y="167.273288" style="stroke: #000000; stroke-width: 0.8"/>
      </g>
     </g>
     <g id="text_10">
      <!-- 0.0010 -->
      <g transform="translate(34.78 172.592194) scale(0.14 -0.14)">
       <use xlink:href="#DejaVuSans-30"/>
       <use xlink:href="#DejaVuSans-2e" x="63.623047"/>
       <use xlink:href="#DejaVuSans-30" x="95.410156"/>
       <use xlink:href="#DejaVuSans-30" x="159.033203"/>
       <use xlink:href="#DejaVuSans-31" x="222.65625"/>
       <use xlink:href="#DejaVuSans-30" x="286.279297"/>
      </g>
     </g>
    </g>
    <g id="ytick_4">
     <g id="line2d_19">
      <path d="M 90.766875 126.579763 
L 398.276875 126.579763 
" clip-path="url(#p5dcca6de19)" style="fill: none; stroke: #b0b0b0; stroke-opacity: 0.3; stroke-width: 0.8; stroke-linecap: square"/>
     </g>
     <g id="line2d_20">
      <g>
       <use xlink:href="#m038bd28d64" x="90.766875" y="126.579763" style="stroke: #000000; stroke-width: 0.8"/>
      </g>
     </g>
     <g id="text_11">
      <!-- 0.0015 -->
      <g transform="translate(34.78 131.89867) scale(0.14 -0.14)">
       <use xlink:href="#DejaVuSans-30"/>
       <use xlink:href="#DejaVuSans-2e" x="63.623047"/>
       <use xlink:href="#DejaVuSans-30" x="95.410156"/>
       <use xlink:href="#DejaVuSans-30" x="159.033203"/>
       <use xlink:href="#DejaVuSans-31" x="222.65625"/>
       <use xlink:href="#DejaVuSans-35" x="286.279297"/>
      </g>
     </g>
    </g>
    <g id="ytick_5">
     <g id="line2d_21">
      <path d="M 90.766875 85.886239 
L 398.276875 85.886239 
" clip-path="url(#p5dcca6de19)" style="fill: none; stroke: #b0b0b0; stroke-opacity: 0.3; stroke-width: 0.8; stroke-linecap: square"/>
     </g>
     <g id="line2d_22">
      <g>
       <use xlink:href="#m038bd28d64" x="90.766875" y="85.886239" style="stroke: #000000; stroke-width: 0.8"/>
      </g>
     </g>
     <g id="text_12">
      <!-- 0.0020 -->
      <g transform="translate(34.78 91.205145) scale(0.14 -0.14)">
       <use xlink:href="#DejaVuSans-30"/>
       <use xlink:href="#DejaVuSans-2e" x="63.623047"/>
       <use xlink:href="#DejaVuSans-30" x="95.410156"/>
       <use xlink:href="#DejaVuSans-30" x="159.033203"/>
       <use xlink:href="#DejaVuSans-32" x="222.65625"/>
       <use xlink:href="#DejaVuSans-30" x="286.279297"/>
      </g>
     </g>
    </g>
    <g id="ytick_6">
     <g id="line2d_23">
      <path d="M 90.766875 45.192714 
L 398.276875 45.192714 
" clip-path="url(#p5dcca6de19)" style="fill: none; stroke: #b0b0b0; stroke-opacity: 0.3; stroke-width: 0.8; stroke-linecap: square"/>
     </g>
     <g id="line2d_24">
      <g>
       <use xlink:href="#m038bd28d64" x="90.766875" y="45.192714" style="stroke: #000000; stroke-width: 0.8"/>
      </g>
     </g>
     <g id="text_13">
      <!-- 0.0025 -->
      <g transform="translate(34.78 50.511621) scale(0.14 -0.14)">
       <use xlink:href="#DejaVuSans-30"/>
       <use xlink:href="#DejaVuSans-2e" x="63.623047"/>
       <use xlink:href="#DejaVuSans-30" x="95.410156"/>
       <use xlink:href="#DejaVuSans-30" x="159.033203"/>
       <use xlink:href="#DejaVuSans-32" x="222.65625"/>
       <use xlink:href="#DejaVuSans-35" x="286.279297"/>
      </g>
     </g>
    </g>
    <g id="text_14">
     <!-- $\beta_t\hat{D}_t$ -->
     <g transform="translate(27 149.21) rotate(-90) scale(0.18 -0.18)">
      <defs>
       <path id="DejaVuSans-Oblique-3b2" d="M 872 216 
L 572 -1331 
L -6 -1331 
L 928 3478 
Q 1206 4903 2538 4903 
Q 3888 4903 3659 3700 
Q 3503 2844 2894 2531 
Q 3713 2250 3553 1416 
Q 3272 -69 1759 -66 
Q 1097 -63 872 216 
z
M 1019 966 
Q 1259 422 1875 425 
Q 2775 425 2966 1406 
Q 3138 2288 1675 2219 
L 1778 2750 
Q 2909 2731 3106 3750 
Q 3241 4438 2509 4434 
Q 1691 4434 1503 3459 
L 1019 966 
z
" transform="scale(0.015625)"/>
       <path id="DejaVuSans-302" d="M -1831 5119 
L -1369 5119 
L -603 3944 
L -1038 3944 
L -1600 4709 
L -2163 3944 
L -2597 3944 
L -1831 5119 
z
M -1600 3584 
L -1600 3584 
z
" transform="scale(0.015625)"/>
       <path id="DejaVuSans-Oblique-44" d="M 1081 4666 
L 2438 4666 
Q 3519 4666 4070 4208 
Q 4622 3750 4622 2847 
Q 4622 2250 4412 1698 
Q 4203 1147 3834 769 
Q 3463 381 2891 190 
Q 2319 0 1538 0 
L 172 0 
L 1081 4666 
z
M 1613 4147 
L 909 519 
L 1734 519 
Q 2794 519 3375 1128 
Q 3956 1738 3956 2847 
Q 3956 3519 3581 3833 
Q 3206 4147 2406 4147 
L 1613 4147 
z
" transform="scale(0.015625)"/>
      </defs>
      <use xlink:href="#DejaVuSans-Oblique-3b2" transform="translate(0 0.609375)"/>
      <use xlink:href="#DejaVuSans-Oblique-74" transform="translate(63.818359 -15.796875) scale(0.7)"/>
      <use xlink:href="#DejaVuSans-302" transform="translate(166.827637 30.015625)"/>
      <use xlink:href="#DejaVuSans-Oblique-44" transform="translate(93.999023 0.609375)"/>
      <use xlink:href="#DejaVuSans-Oblique-74" transform="translate(171.958008 -15.796875) scale(0.7)"/>
     </g>
    </g>
   </g>
   <g id="line2d_25">
    <path d="M 398.276875 176.360345 
L 392.126675 168.249396 
L 385.976475 162.19529 
L 379.826275 155.597868 
L 373.676075 148.845211 
L 367.525875 142.014938 
L 361.375675 135.262282 
L 355.225475 128.509626 
L 349.075275 121.834586 
L 342.925075 115.392397 
L 336.774875 109.105441 
L 330.624675 103.128952 
L 324.474475 97.462931 
L 318.324275 92.029759 
L 312.174075 87.062288 
L 306.023875 82.560517 
L 299.873675 78.369213 
L 293.723475 74.798843 
L 287.573275 71.694173 
L 281.423075 69.210438 
L 275.272875 67.192403 
L 269.122675 65.950535 
L 262.972475 65.174367 
L 256.822275 65.019134 
L 250.672075 65.484834 
L 244.521875 66.726702 
L 238.371675 68.43427 
L 232.221475 71.07324 
L 226.071275 73.867442 
L 219.921075 77.903512 
L 213.770875 81.784349 
L 207.620675 86.441354 
L 201.470475 91.486442 
L 195.320275 96.53153 
L 189.170075 102.430402 
L 183.019875 108.251657 
L 176.869675 114.61623 
L 170.719475 121.136036 
L 164.569275 127.267758 
L 158.419075 136.193683 
L 152.268875 138.832652 
L 146.118675 151.794647 
L 139.968475 155.287401 
L 133.818275 163.747625 
L 127.668075 175.390136 
L 121.517875 177.330554 
L 115.367675 196.307847 
L 109.217475 210.220647 
L 103.067275 223.434897 
L 96.917075 239.147435 
L 90.766875 240.171006 
" clip-path="url(#p5dcca6de19)" style="fill: none; stroke: #939393; stroke-opacity: 0.7; stroke-linecap: square"/>
   </g>
   <g id="line2d_26">
    <path d="M 398.276875 164.290942 
L 392.126675 154.8217 
L 385.976475 147.525727 
L 379.826275 139.608819 
L 373.676075 131.536679 
L 367.525875 123.386921 
L 361.375675 115.237164 
L 355.225475 107.165023 
L 349.075275 99.248116 
L 342.925075 91.486442 
L 336.774875 83.957618 
L 330.624675 76.816878 
L 324.474475 69.986605 
L 318.324275 63.622033 
L 312.174075 57.723161 
L 306.023875 52.289989 
L 299.873675 47.477751 
L 293.723475 43.131214 
L 287.573275 39.560844 
L 281.423075 36.766641 
L 275.272875 34.593372 
L 269.122675 33.196271 
L 262.972475 32.575337 
L 256.822275 32.730571 
L 250.672075 33.661972 
L 244.521875 35.524773 
L 238.371675 38.163742 
L 232.221475 41.423645 
L 226.071275 45.614949 
L 219.921075 50.427187 
L 213.770875 55.860359 
L 207.620675 61.914464 
L 201.470475 68.589504 
L 195.320275 76.040711 
L 189.170075 83.336684 
L 183.019875 92.184992 
L 176.869675 99.946666 
L 170.719475 109.803992 
L 164.569275 118.574683 
L 158.419075 128.975326 
L 152.268875 137.357934 
L 146.118675 149.854229 
L 139.968475 157.771136 
L 133.818275 169.374839 
L 127.668075 180.939733 
L 121.517875 179.193356 
L 115.367675 207.329424 
L 109.217475 214.237313 
L 103.067275 229.081515 
L 96.917075 240.981131 
L 90.766875 241.854319 
" clip-path="url(#p5dcca6de19)" style="fill: none; stroke: #939393; stroke-opacity: 0.7; stroke-linecap: square"/>
   </g>
   <g id="line2d_27">
    <path d="M 398.276875 168.094162 
L 392.126675 159.013004 
L 385.976475 152.027498 
L 379.826275 144.421057 
L 373.676075 136.659383 
L 367.525875 128.742476 
L 361.375675 120.903186 
L 355.225475 113.063895 
L 349.075275 105.379838 
L 342.925075 97.851014 
L 336.774875 90.477424 
L 330.624675 83.491918 
L 324.474475 76.661645 
L 318.324275 70.297072 
L 312.174075 64.3982 
L 306.023875 58.809795 
L 299.873675 53.842324 
L 293.723475 49.495786 
L 287.573275 45.614949 
L 281.423075 42.355046 
L 275.272875 39.871311 
L 269.122675 38.008509 
L 262.972475 36.766641 
L 256.822275 36.456174 
L 250.672075 36.766641 
L 244.521875 37.698042 
L 238.371675 39.716077 
L 232.221475 42.044579 
L 226.071275 45.614949 
L 219.921075 49.65102 
L 213.770875 54.308024 
L 207.620675 59.896429 
L 201.470475 65.950535 
L 195.320275 72.470341 
L 189.170075 79.921548 
L 183.019875 87.372755 
L 176.869675 96.376296 
L 170.719475 104.37082 
L 164.569275 113.995296 
L 158.419075 123.231688 
L 152.268875 132.93378 
L 146.118675 143.955357 
L 139.968475 153.502216 
L 133.818275 166.308977 
L 127.668075 168.63748 
L 121.517875 190.9911 
L 115.367675 194.639087 
L 109.217475 214.101484 
L 103.067275 224.773786 
L 96.917075 240.990833 
L 90.766875 242.742061 
" clip-path="url(#p5dcca6de19)" style="fill: none; stroke: #939393; stroke-opacity: 0.7; stroke-linecap: square"/>
   </g>
   <g id="line2d_28">
    <path d="M 398.276875 176.787237 
L 392.126675 168.715096 
L 385.976475 162.660991 
L 379.826275 156.063568 
L 373.676075 149.310912 
L 367.525875 142.480639 
L 361.375675 135.727983 
L 355.225475 129.052943 
L 349.075275 122.533137 
L 342.925075 116.168564 
L 336.774875 110.036842 
L 330.624675 104.13797 
L 324.474475 98.627182 
L 318.324275 93.42686 
L 312.174075 88.614622 
L 306.023875 84.268085 
L 299.873675 80.542482 
L 293.723475 77.127345 
L 287.573275 74.333143 
L 281.423075 72.159874 
L 275.272875 70.607539 
L 269.122675 69.676138 
L 262.972475 69.210438 
L 256.822275 69.520905 
L 250.672075 70.452306 
L 244.521875 72.00464 
L 238.371675 74.333143 
L 232.221475 77.127345 
L 226.071275 80.697715 
L 219.921075 84.733785 
L 213.770875 89.546023 
L 207.620675 94.513494 
L 201.470475 100.5676 
L 195.320275 106.233622 
L 189.170075 113.374362 
L 183.019875 118.807534 
L 176.869675 127.655842 
L 170.719475 132.778546 
L 164.569275 142.403022 
L 158.419075 150.78563 
L 152.268875 157.771136 
L 146.118675 164.911876 
L 139.968475 176.01107 
L 133.818275 175.933453 
L 127.668075 191.107525 
L 121.517875 199.722983 
L 115.367675 206.087556 
L 109.217475 221.22282 
L 103.067275 230.96372 
L 96.917075 241.888276 
L 90.766875 242.048361 
" clip-path="url(#p5dcca6de19)" style="fill: none; stroke: #939393; stroke-opacity: 0.7; stroke-linecap: square"/>
   </g>
   <g id="line2d_29">
    <path d="M 398.276875 158.857771 
L 392.126675 148.689978 
L 385.976475 141.083537 
L 379.826275 132.778546 
L 373.676075 124.318322 
L 367.525875 115.858098 
L 361.375675 107.320256 
L 355.225475 99.015265 
L 349.075275 90.787891 
L 342.925075 82.71575 
L 336.774875 75.10931 
L 330.624675 67.658103 
L 324.474475 60.672597 
L 318.324275 54.152791 
L 312.174075 48.098685 
L 306.023875 42.665513 
L 299.873675 37.698042 
L 293.723475 33.506738 
L 287.573275 29.936368 
L 281.423075 26.986932 
L 275.272875 24.968897 
L 269.122675 23.571796 
L 262.972475 22.950862 
L 256.822275 23.261329 
L 250.672075 24.19273 
L 244.521875 26.055531 
L 238.371675 28.6945 
L 232.221475 31.954403 
L 226.071275 36.300941 
L 219.921075 41.113179 
L 213.770875 46.701584 
L 207.620675 52.755689 
L 201.470475 59.896429 
L 195.320275 66.726702 
L 189.170075 75.10931 
L 183.019875 82.870984 
L 176.869675 91.796909 
L 170.719475 101.576618 
L 164.569275 109.415908 
L 158.419075 121.834586 
L 152.268875 128.199159 
L 146.118675 142.325405 
L 139.968475 151.328947 
L 133.818275 164.601409 
L 127.668075 181.211391 
L 121.517875 195.919763 
L 115.367675 205.311388 
L 109.217475 220.407844 
L 103.067275 230.798785 
L 96.917075 242.038659 
L 90.766875 243.139846 
" clip-path="url(#p5dcca6de19)" style="fill: none; stroke: #939393; stroke-opacity: 0.7; stroke-linecap: square"/>
   </g>
   <g id="line2d_30">
    <path d="M 398.276875 162.272907 
L 392.126675 152.570815 
L 385.976475 144.809141 
L 379.826275 136.50415 
L 373.676075 128.043925 
L 367.525875 119.428467 
L 361.375675 110.81301 
L 355.225475 102.275168 
L 349.075275 93.892561 
L 342.925075 85.665186 
L 336.774875 77.593046 
L 330.624675 69.831372 
L 324.474475 62.535398 
L 318.324275 55.549892 
L 312.174075 49.030086 
L 306.023875 42.97598 
L 299.873675 37.542809 
L 293.723475 32.730571 
L 287.573275 28.539267 
L 281.423075 24.968897 
L 275.272875 22.174694 
L 269.122675 20.156659 
L 262.972475 18.914791 
L 256.822275 18.449091 
L 250.672075 18.759558 
L 244.521875 19.846192 
L 238.371675 21.708994 
L 232.221475 24.347963 
L 226.071275 27.918333 
L 219.921075 32.109637 
L 213.770875 37.077108 
L 207.620675 42.355046 
L 201.470475 48.719619 
L 195.320275 55.084191 
L 189.170075 62.535398 
L 183.019875 69.831372 
L 176.869675 76.816878 
L 170.719475 86.751821 
L 164.569275 93.42686 
L 158.419075 105.767922 
L 152.268875 111.666794 
L 146.118675 127.578225 
L 139.968475 131.226212 
L 133.818275 152.027498 
L 127.668075 147.060026 
L 121.517875 180.008332 
L 115.367675 186.799796 
L 109.217475 208.338441 
L 103.067275 220.912353 
L 96.917075 238.046248 
L 90.766875 237.502931 
" clip-path="url(#p5dcca6de19)" style="fill: none; stroke: #939393; stroke-opacity: 0.7; stroke-linecap: square"/>
   </g>
   <g id="line2d_31">
    <path d="M 398.276875 166.852295 
L 392.126675 157.615903 
L 385.976475 150.55278 
L 379.826275 143.023956 
L 373.676075 135.262282 
L 367.525875 127.500608 
L 361.375675 119.738934 
L 355.225475 112.054877 
L 349.075275 104.526054 
L 342.925075 97.23008 
L 336.774875 90.08934 
L 330.624675 83.336684 
L 324.474475 76.816878 
L 318.324275 70.762773 
L 312.174075 65.174367 
L 306.023875 60.051663 
L 299.873675 55.549892 
L 293.723475 51.513821 
L 287.573275 48.253918 
L 281.423075 45.459716 
L 275.272875 43.441681 
L 269.122675 42.044579 
L 262.972475 41.423645 
L 256.822275 41.423645 
L 250.672075 42.199813 
L 244.521875 43.752148 
L 238.371675 46.08065 
L 232.221475 49.030086 
L 226.071275 52.910923 
L 219.921075 57.25746 
L 213.770875 62.224931 
L 207.620675 67.813336 
L 201.470475 74.022676 
L 195.320275 81.008182 
L 189.170075 87.217521 
L 183.019875 95.832979 
L 176.869675 103.051336 
L 170.719475 111.822027 
L 164.569275 119.894168 
L 158.419075 128.587243 
L 152.268875 137.435551 
L 146.118675 144.809141 
L 139.968475 158.702537 
L 133.818275 159.556321 
L 127.668075 176.47677 
L 121.517875 189.399957 
L 115.367675 203.953096 
L 109.217475 220.272015 
L 103.067275 233.495967 
L 96.917075 242.809975 
L 90.766875 243.430909 
" clip-path="url(#p5dcca6de19)" style="fill: none; stroke: #939393; stroke-opacity: 0.7; stroke-linecap: square"/>
   </g>
   <g id="line2d_32">
    <path d="M 398.276875 170.112198 
L 392.126675 161.263889 
L 385.976475 154.511233 
L 379.826275 147.137643 
L 373.676075 139.608819 
L 367.525875 132.002379 
L 361.375675 124.473555 
L 355.225475 116.944732 
L 349.075275 109.493525 
L 342.925075 102.275168 
L 336.774875 95.289662 
L 330.624675 88.459389 
L 324.474475 82.094816 
L 318.324275 76.195944 
L 312.174075 70.607539 
L 306.023875 65.484834 
L 299.873675 60.82783 
L 293.723475 56.79176 
L 287.573275 53.531857 
L 281.423075 50.737654 
L 275.272875 48.719619 
L 269.122675 47.322518 
L 262.972475 46.701584 
L 256.822275 46.856817 
L 250.672075 47.788218 
L 244.521875 49.495786 
L 238.371675 51.979522 
L 232.221475 55.084191 
L 226.071275 59.120262 
L 219.921075 63.466799 
L 213.770875 69.055204 
L 207.620675 74.333143 
L 201.470475 81.163415 
L 195.320275 87.527988 
L 189.170075 95.755362 
L 183.019875 102.585635 
L 176.869675 111.74441 
L 170.719475 118.729917 
L 164.569275 129.052943 
L 158.419075 137.125084 
L 152.268875 143.489656 
L 146.118675 160.099638 
L 139.968475 159.478704 
L 133.818275 180.978541 
L 127.668075 183.695127 
L 121.517875 192.853902 
L 115.367675 212.801404 
L 109.217475 224.482723 
L 103.067275 233.447456 
L 96.917075 242.242403 
L 90.766875 242.470402 
" clip-path="url(#p5dcca6de19)" style="fill: none; stroke: #939393; stroke-opacity: 0.7; stroke-linecap: square"/>
   </g>
   <g id="line2d_33">
    <path d="M 398.276875 159.633938 
L 392.126675 149.621379 
L 385.976475 142.014938 
L 379.826275 133.709947 
L 373.676075 125.249723 
L 367.525875 116.711882 
L 361.375675 108.17404 
L 355.225475 99.713816 
L 349.075275 91.408825 
L 342.925075 83.336684 
L 336.774875 75.419777 
L 330.624675 67.96857 
L 324.474475 60.82783 
L 318.324275 53.997557 
L 312.174075 47.943451 
L 306.023875 42.199813 
L 299.873675 37.077108 
L 293.723475 32.730571 
L 287.573275 28.849734 
L 281.423075 25.900298 
L 275.272875 23.571796 
L 269.122675 22.174694 
L 262.972475 21.398527 
L 256.822275 21.55376 
L 250.672075 22.485161 
L 244.521875 24.19273 
L 238.371675 26.831699 
L 232.221475 30.091602 
L 226.071275 34.282906 
L 219.921075 39.250377 
L 213.770875 44.838782 
L 207.620675 51.048121 
L 201.470475 58.188861 
L 195.320275 65.484834 
L 189.170075 73.556975 
L 183.019875 82.094816 
L 176.869675 90.632658 
L 170.719475 100.1019 
L 164.569275 109.105441 
L 158.419075 119.118001 
L 152.268875 129.59626 
L 146.118675 140.773071 
L 139.968475 150.087079 
L 133.818275 165.29996 
L 127.668075 175.622986 
L 121.517875 186.605755 
L 115.367675 206.980148 
L 109.217475 218.448021 
L 103.067275 232.76831 
L 96.917075 242.334573 
L 90.766875 243.004017 
" clip-path="url(#p5dcca6de19)" style="fill: none; stroke: #939393; stroke-opacity: 0.7; stroke-linecap: square"/>
   </g>
   <g id="line2d_34">
    <path d="M 398.276875 172.285466 
L 392.126675 163.670008 
L 385.976475 157.072586 
L 379.826275 149.931846 
L 373.676075 142.713489 
L 367.525875 135.339899 
L 361.375675 128.043925 
L 355.225475 120.825569 
L 349.075275 113.762446 
L 342.925075 106.776939 
L 336.774875 100.1019 
L 330.624675 93.737327 
L 324.474475 87.683222 
L 318.324275 81.939583 
L 312.174075 76.661645 
L 306.023875 71.849407 
L 299.873675 67.50287 
L 293.723475 63.777266 
L 287.573275 60.672597 
L 281.423075 58.188861 
L 275.272875 56.326059 
L 269.122675 55.084191 
L 262.972475 54.618491 
L 256.822275 54.773724 
L 250.672075 55.860359 
L 244.521875 57.567927 
L 238.371675 59.896429 
L 232.221475 63.156332 
L 226.071275 67.037169 
L 219.921075 71.694173 
L 213.770875 76.816878 
L 207.620675 82.71575 
L 201.470475 89.080323 
L 195.320275 95.910596 
L 189.170075 102.973719 
L 183.019875 110.735393 
L 176.869675 118.41945 
L 170.719475 126.336357 
L 164.569275 135.029432 
L 158.419075 141.005921 
L 152.268875 152.570815 
L 146.118675 157.227819 
L 139.968475 168.249396 
L 133.818275 179.503823 
L 127.668075 189.865658 
L 121.517875 202.517186 
L 115.367675 212.122257 
L 109.217475 222.018391 
L 103.067275 233.660902 
L 96.917075 242.455849 
L 90.766875 242.659593 
" clip-path="url(#p5dcca6de19)" style="fill: none; stroke: #939393; stroke-opacity: 0.7; stroke-linecap: square"/>
   </g>
   <g id="patch_3">
    <path d="M 90.766875 254.68 
L 90.766875 7.2 
" style="fill: none; stroke: #000000; stroke-width: 0.8; stroke-linejoin: miter; stroke-linecap: square"/>
   </g>
   <g id="patch_4">
    <path d="M 398.276875 254.68 
L 398.276875 7.2 
" style="fill: none; stroke: #000000; stroke-width: 0.8; stroke-linejoin: miter; stroke-linecap: square"/>
   </g>
   <g id="patch_5">
    <path d="M 90.766875 254.68 
L 398.276875 254.68 
" style="fill: none; stroke: #000000; stroke-width: 0.8; stroke-linejoin: miter; stroke-linecap: square"/>
   </g>
   <g id="patch_6">
    <path d="M 90.766875 7.2 
L 398.276875 7.2 
" style="fill: none; stroke: #000000; stroke-width: 0.8; stroke-linejoin: miter; stroke-linecap: square"/>
   </g>
  </g>
 </g>
 <defs>
  <clipPath id="p5dcca6de19">
   <rect x="90.766875" y="7.2" width="307.51" height="247.48"/>
  </clipPath>
 </defs>
</svg>
