<?xml version="1.0" encoding="utf-8" standalone="no"?>
<!DOCTYPE svg PUBLIC "-//W3C//DTD SVG 1.1//EN"
  "http://www.w3.org/Graphics/SVG/1.1/DTD/svg11.dtd">
<svg xmlns:xlink="http://www.w3.org/1999/xlink" width="409.015625pt" height="303.85pt" viewBox="0 0 409.015625 303.85" xmlns="http://www.w3.org/2000/svg" version="1.1">
 <metadata>
  <rdf:RDF xmlns:dc="http://purl.org/dc/elements/1.1/" xmlns:cc="http://creativecommons.org/ns#" xmlns:rdf="http://www.w3.org/1999/02/22-rdf-syntax-ns#">
   <cc:Work>
    <dc:type rdf:resource="http://purl.org/dc/dcmitype/StillImage"/>
    <dc:date>2024-10-03T22:11:12.629515</dc:date>
    <dc:format>image/svg+xml</dc:format>
    <dc:creator>
     <cc:Agent>
      <dc:title>Matplotlib v3.8.4, https://matplotlib.org/</dc:title>
     </cc:Agent>
    </dc:creator>
   </cc:Work>
  </rdf:RDF>
 </metadata>
 <defs>
  <style type="text/css">*{stroke-linejoin: round; stroke-linecap: butt}</style>
 </defs>
 <g id="figure_1">
  <g id="patch_1">
   <path d="M 0 303.85 
L 409.015625 303.85 
L 409.015625 0 
L 0 0 
z
" style="fill: #ffffff"/>
  </g>
  <g id="axes_1">
   <g id="patch_2">
    <path d="M 63.504375 254.68 
L 397.361875 254.68 
L 397.361875 7.2 
L 63.504375 7.2 
z
" style="fill: #ffffff"/>
   </g>
   <g id="matplotlib.axis_1">
    <g id="xtick_1">
     <g id="line2d_1">
      <path d="M 63.504375 254.68 
L 63.504375 7.2 
" clip-path="url(#p9e695364f8)" style="fill: none; stroke: #b0b0b0; stroke-opacity: 0.3; stroke-width: 0.8; stroke-linecap: square"/>
     </g>
     <g id="line2d_2">
      <defs>
       <path id="m0127dfb184" d="M 0 0 
L 0 3.5 
" style="stroke: #000000; stroke-width: 0.8"/>
      </defs>
      <g>
       <use xlink:href="#m0127dfb184" x="63.504375" y="254.68" style="stroke: #000000; stroke-width: 0.8"/>
      </g>
     </g>
     <g id="text_1">
      <!-- 50 -->
      <g transform="translate(54.596875 272.317812) scale(0.14 -0.14)">
       <defs>
        <path id="DejaVuSans-35" d="M 691 4666 
L 3169 4666 
L 3169 4134 
L 1269 4134 
L 1269 2991 
Q 1406 3038 1543 3061 
Q 1681 3084 1819 3084 
Q 2600 3084 3056 2656 
Q 3513 2228 3513 1497 
Q 3513 744 3044 326 
Q 2575 -91 1722 -91 
Q 1428 -91 1123 -41 
Q 819 9 494 109 
L 494 744 
Q 775 591 1075 516 
Q 1375 441 1709 441 
Q 2250 441 2565 725 
Q 2881 1009 2881 1497 
Q 2881 1984 2565 2268 
Q 2250 2553 1709 2553 
Q 1456 2553 1204 2497 
Q 953 2441 691 2322 
L 691 4666 
z
" transform="scale(0.015625)"/>
        <path id="DejaVuSans-30" d="M 2034 4250 
Q 1547 4250 1301 3770 
Q 1056 3291 1056 2328 
Q 1056 1369 1301 889 
Q 1547 409 2034 409 
Q 2525 409 2770 889 
Q 3016 1369 3016 2328 
Q 3016 3291 2770 3770 
Q 2525 4250 2034 4250 
z
M 2034 4750 
Q 2819 4750 3233 4129 
Q 3647 3509 3647 2328 
Q 3647 1150 3233 529 
Q 2819 -91 2034 -91 
Q 1250 -91 836 529 
Q 422 1150 422 2328 
Q 422 3509 836 4129 
Q 1250 4750 2034 4750 
z
" transform="scale(0.015625)"/>
       </defs>
       <use xlink:href="#DejaVuSans-35"/>
       <use xlink:href="#DejaVuSans-30" x="63.623047"/>
      </g>
     </g>
    </g>
    <g id="xtick_2">
     <g id="line2d_3">
      <path d="M 130.275875 254.68 
L 130.275875 7.2 
" clip-path="url(#p9e695364f8)" style="fill: none; stroke: #b0b0b0; stroke-opacity: 0.3; stroke-width: 0.8; stroke-linecap: square"/>
     </g>
     <g id="line2d_4">
      <g>
       <use xlink:href="#m0127dfb184" x="130.275875" y="254.68" style="stroke: #000000; stroke-width: 0.8"/>
      </g>
     </g>
     <g id="text_2">
      <!-- 40 -->
      <g transform="translate(121.368375 272.317812) scale(0.14 -0.14)">
       <defs>
        <path id="DejaVuSans-34" d="M 2419 4116 
L 825 1625 
L 2419 1625 
L 2419 4116 
z
M 2253 4666 
L 3047 4666 
L 3047 1625 
L 3713 1625 
L 3713 1100 
L 3047 1100 
L 3047 0 
L 2419 0 
L 2419 1100 
L 313 1100 
L 313 1709 
L 2253 4666 
z
" transform="scale(0.015625)"/>
       </defs>
       <use xlink:href="#DejaVuSans-34"/>
       <use xlink:href="#DejaVuSans-30" x="63.623047"/>
      </g>
     </g>
    </g>
    <g id="xtick_3">
     <g id="line2d_5">
      <path d="M 197.047375 254.68 
L 197.047375 7.2 
" clip-path="url(#p9e695364f8)" style="fill: none; stroke: #b0b0b0; stroke-opacity: 0.3; stroke-width: 0.8; stroke-linecap: square"/>
     </g>
     <g id="line2d_6">
      <g>
       <use xlink:href="#m0127dfb184" x="197.047375" y="254.68" style="stroke: #000000; stroke-width: 0.8"/>
      </g>
     </g>
     <g id="text_3">
      <!-- 30 -->
      <g transform="translate(188.139875 272.317812) scale(0.14 -0.14)">
       <defs>
        <path id="DejaVuSans-33" d="M 2597 2516 
Q 3050 2419 3304 2112 
Q 3559 1806 3559 1356 
Q 3559 666 3084 287 
Q 2609 -91 1734 -91 
Q 1441 -91 1130 -33 
Q 819 25 488 141 
L 488 750 
Q 750 597 1062 519 
Q 1375 441 1716 441 
Q 2309 441 2620 675 
Q 2931 909 2931 1356 
Q 2931 1769 2642 2001 
Q 2353 2234 1838 2234 
L 1294 2234 
L 1294 2753 
L 1863 2753 
Q 2328 2753 2575 2939 
Q 2822 3125 2822 3475 
Q 2822 3834 2567 4026 
Q 2313 4219 1838 4219 
Q 1578 4219 1281 4162 
Q 984 4106 628 3988 
L 628 4550 
Q 988 4650 1302 4700 
Q 1616 4750 1894 4750 
Q 2613 4750 3031 4423 
Q 3450 4097 3450 3541 
Q 3450 3153 3228 2886 
Q 3006 2619 2597 2516 
z
" transform="scale(0.015625)"/>
       </defs>
       <use xlink:href="#DejaVuSans-33"/>
       <use xlink:href="#DejaVuSans-30" x="63.623047"/>
      </g>
     </g>
    </g>
    <g id="xtick_4">
     <g id="line2d_7">
      <path d="M 263.818875 254.68 
L 263.818875 7.2 
" clip-path="url(#p9e695364f8)" style="fill: none; stroke: #b0b0b0; stroke-opacity: 0.3; stroke-width: 0.8; stroke-linecap: square"/>
     </g>
     <g id="line2d_8">
      <g>
       <use xlink:href="#m0127dfb184" x="263.818875" y="254.68" style="stroke: #000000; stroke-width: 0.8"/>
      </g>
     </g>
     <g id="text_4">
      <!-- 20 -->
      <g transform="translate(254.911375 272.317812) scale(0.14 -0.14)">
       <defs>
        <path id="DejaVuSans-32" d="M 1228 531 
L 3431 531 
L 3431 0 
L 469 0 
L 469 531 
Q 828 903 1448 1529 
Q 2069 2156 2228 2338 
Q 2531 2678 2651 2914 
Q 2772 3150 2772 3378 
Q 2772 3750 2511 3984 
Q 2250 4219 1831 4219 
Q 1534 4219 1204 4116 
Q 875 4013 500 3803 
L 500 4441 
Q 881 4594 1212 4672 
Q 1544 4750 1819 4750 
Q 2544 4750 2975 4387 
Q 3406 4025 3406 3419 
Q 3406 3131 3298 2873 
Q 3191 2616 2906 2266 
Q 2828 2175 2409 1742 
Q 1991 1309 1228 531 
z
" transform="scale(0.015625)"/>
       </defs>
       <use xlink:href="#DejaVuSans-32"/>
       <use xlink:href="#DejaVuSans-30" x="63.623047"/>
      </g>
     </g>
    </g>
    <g id="xtick_5">
     <g id="line2d_9">
      <path d="M 330.590375 254.68 
L 330.590375 7.2 
" clip-path="url(#p9e695364f8)" style="fill: none; stroke: #b0b0b0; stroke-opacity: 0.3; stroke-width: 0.8; stroke-linecap: square"/>
     </g>
     <g id="line2d_10">
      <g>
       <use xlink:href="#m0127dfb184" x="330.590375" y="254.68" style="stroke: #000000; stroke-width: 0.8"/>
      </g>
     </g>
     <g id="text_5">
      <!-- 10 -->
      <g transform="translate(321.682875 272.317812) scale(0.14 -0.14)">
       <defs>
        <path id="DejaVuSans-31" d="M 794 531 
L 1825 531 
L 1825 4091 
L 703 3866 
L 703 4441 
L 1819 4666 
L 2450 4666 
L 2450 531 
L 3481 531 
L 3481 0 
L 794 0 
L 794 531 
z
" transform="scale(0.015625)"/>
       </defs>
       <use xlink:href="#DejaVuSans-31"/>
       <use xlink:href="#DejaVuSans-30" x="63.623047"/>
      </g>
     </g>
    </g>
    <g id="xtick_6">
     <g id="line2d_11">
      <path d="M 397.361875 254.68 
L 397.361875 7.2 
" clip-path="url(#p9e695364f8)" style="fill: none; stroke: #b0b0b0; stroke-opacity: 0.3; stroke-width: 0.8; stroke-linecap: square"/>
     </g>
     <g id="line2d_12">
      <g>
       <use xlink:href="#m0127dfb184" x="397.361875" y="254.68" style="stroke: #000000; stroke-width: 0.8"/>
      </g>
     </g>
     <g id="text_6">
      <!-- 0 -->
      <g transform="translate(392.908125 272.317812) scale(0.14 -0.14)">
       <use xlink:href="#DejaVuSans-30"/>
      </g>
     </g>
    </g>
    <g id="text_7">
     <!-- $\tau$ -->
     <g transform="translate(224.943125 292.906562) scale(0.18 -0.18)">
      <defs>
       <path id="DejaVuSans-Oblique-3c4" d="M 2103 638 
Q 2188 488 2525 488 
L 2800 488 
L 2706 0 
L 2363 0 
Q 1800 0 1600 300 
Q 1403 606 1534 1269 
L 1856 2925 
L 541 2925 
L 653 3500 
L 3881 3500 
L 3769 2925 
L 2444 2925 
L 2113 1234 
Q 2025 781 2103 638 
z
" transform="scale(0.015625)"/>
      </defs>
      <use xlink:href="#DejaVuSans-Oblique-3c4" transform="translate(0 0.3125)"/>
     </g>
    </g>
   </g>
   <g id="matplotlib.axis_2">
    <g id="ytick_1">
     <g id="line2d_13">
      <path d="M 63.504375 231.303262 
L 397.361875 231.303262 
" clip-path="url(#p9e695364f8)" style="fill: none; stroke: #b0b0b0; stroke-opacity: 0.3; stroke-width: 0.8; stroke-linecap: square"/>
     </g>
     <g id="line2d_14">
      <defs>
       <path id="me17da4536c" d="M 0 0 
L -3.5 0 
" style="stroke: #000000; stroke-width: 0.8"/>
      </defs>
      <g>
       <use xlink:href="#me17da4536c" x="63.504375" y="231.303262" style="stroke: #000000; stroke-width: 0.8"/>
      </g>
     </g>
     <g id="text_8">
      <!-- 0.2 -->
      <g transform="translate(34.24 236.622168) scale(0.14 -0.14)">
       <defs>
        <path id="DejaVuSans-2e" d="M 684 794 
L 1344 794 
L 1344 0 
L 684 0 
L 684 794 
z
" transform="scale(0.015625)"/>
       </defs>
       <use xlink:href="#DejaVuSans-30"/>
       <use xlink:href="#DejaVuSans-2e" x="63.623047"/>
       <use xlink:href="#DejaVuSans-32" x="95.410156"/>
      </g>
     </g>
    </g>
    <g id="ytick_2">
     <g id="line2d_15">
      <path d="M 63.504375 178.089719 
L 397.361875 178.089719 
" clip-path="url(#p9e695364f8)" style="fill: none; stroke: #b0b0b0; stroke-opacity: 0.3; stroke-width: 0.8; stroke-linecap: square"/>
     </g>
     <g id="line2d_16">
      <g>
       <use xlink:href="#me17da4536c" x="63.504375" y="178.089719" style="stroke: #000000; stroke-width: 0.8"/>
      </g>
     </g>
     <g id="text_9">
      <!-- 0.4 -->
      <g transform="translate(34.24 183.408626) scale(0.14 -0.14)">
       <use xlink:href="#DejaVuSans-30"/>
       <use xlink:href="#DejaVuSans-2e" x="63.623047"/>
       <use xlink:href="#DejaVuSans-34" x="95.410156"/>
      </g>
     </g>
    </g>
    <g id="ytick_3">
     <g id="line2d_17">
      <path d="M 63.504375 124.876176 
L 397.361875 124.876176 
" clip-path="url(#p9e695364f8)" style="fill: none; stroke: #b0b0b0; stroke-opacity: 0.3; stroke-width: 0.8; stroke-linecap: square"/>
     </g>
     <g id="line2d_18">
      <g>
       <use xlink:href="#me17da4536c" x="63.504375" y="124.876176" style="stroke: #000000; stroke-width: 0.8"/>
      </g>
     </g>
     <g id="text_10">
      <!-- 0.6 -->
      <g transform="translate(34.24 130.195083) scale(0.14 -0.14)">
       <defs>
        <path id="DejaVuSans-36" d="M 2113 2584 
Q 1688 2584 1439 2293 
Q 1191 2003 1191 1497 
Q 1191 994 1439 701 
Q 1688 409 2113 409 
Q 2538 409 2786 701 
Q 3034 994 3034 1497 
Q 3034 2003 2786 2293 
Q 2538 2584 2113 2584 
z
M 3366 4563 
L 3366 3988 
Q 3128 4100 2886 4159 
Q 2644 4219 2406 4219 
Q 1781 4219 1451 3797 
Q 1122 3375 1075 2522 
Q 1259 2794 1537 2939 
Q 1816 3084 2150 3084 
Q 2853 3084 3261 2657 
Q 3669 2231 3669 1497 
Q 3669 778 3244 343 
Q 2819 -91 2113 -91 
Q 1303 -91 875 529 
Q 447 1150 447 2328 
Q 447 3434 972 4092 
Q 1497 4750 2381 4750 
Q 2619 4750 2861 4703 
Q 3103 4656 3366 4563 
z
" transform="scale(0.015625)"/>
       </defs>
       <use xlink:href="#DejaVuSans-30"/>
       <use xlink:href="#DejaVuSans-2e" x="63.623047"/>
       <use xlink:href="#DejaVuSans-36" x="95.410156"/>
      </g>
     </g>
    </g>
    <g id="ytick_4">
     <g id="line2d_19">
      <path d="M 63.504375 71.662634 
L 397.361875 71.662634 
" clip-path="url(#p9e695364f8)" style="fill: none; stroke: #b0b0b0; stroke-opacity: 0.3; stroke-width: 0.8; stroke-linecap: square"/>
     </g>
     <g id="line2d_20">
      <g>
       <use xlink:href="#me17da4536c" x="63.504375" y="71.662634" style="stroke: #000000; stroke-width: 0.8"/>
      </g>
     </g>
     <g id="text_11">
      <!-- 0.8 -->
      <g transform="translate(34.24 76.98154) scale(0.14 -0.14)">
       <defs>
        <path id="DejaVuSans-38" d="M 2034 2216 
Q 1584 2216 1326 1975 
Q 1069 1734 1069 1313 
Q 1069 891 1326 650 
Q 1584 409 2034 409 
Q 2484 409 2743 651 
Q 3003 894 3003 1313 
Q 3003 1734 2745 1975 
Q 2488 2216 2034 2216 
z
M 1403 2484 
Q 997 2584 770 2862 
Q 544 3141 544 3541 
Q 544 4100 942 4425 
Q 1341 4750 2034 4750 
Q 2731 4750 3128 4425 
Q 3525 4100 3525 3541 
Q 3525 3141 3298 2862 
Q 3072 2584 2669 2484 
Q 3125 2378 3379 2068 
Q 3634 1759 3634 1313 
Q 3634 634 3220 271 
Q 2806 -91 2034 -91 
Q 1263 -91 848 271 
Q 434 634 434 1313 
Q 434 1759 690 2068 
Q 947 2378 1403 2484 
z
M 1172 3481 
Q 1172 3119 1398 2916 
Q 1625 2713 2034 2713 
Q 2441 2713 2670 2916 
Q 2900 3119 2900 3481 
Q 2900 3844 2670 4047 
Q 2441 4250 2034 4250 
Q 1625 4250 1398 4047 
Q 1172 3844 1172 3481 
z
" transform="scale(0.015625)"/>
       </defs>
       <use xlink:href="#DejaVuSans-30"/>
       <use xlink:href="#DejaVuSans-2e" x="63.623047"/>
       <use xlink:href="#DejaVuSans-38" x="95.410156"/>
      </g>
     </g>
    </g>
    <g id="ytick_5">
     <g id="line2d_21">
      <path d="M 63.504375 18.449091 
L 397.361875 18.449091 
" clip-path="url(#p9e695364f8)" style="fill: none; stroke: #b0b0b0; stroke-opacity: 0.3; stroke-width: 0.8; stroke-linecap: square"/>
     </g>
     <g id="line2d_22">
      <g>
       <use xlink:href="#me17da4536c" x="63.504375" y="18.449091" style="stroke: #000000; stroke-width: 0.8"/>
      </g>
     </g>
     <g id="text_12">
      <!-- 1.0 -->
      <g transform="translate(34.24 23.767997) scale(0.14 -0.14)">
       <use xlink:href="#DejaVuSans-31"/>
       <use xlink:href="#DejaVuSans-2e" x="63.623047"/>
       <use xlink:href="#DejaVuSans-30" x="95.410156"/>
      </g>
     </g>
    </g>
    <g id="text_13">
     <!-- $\tilde{D}_{\tau} / \tilde{D}_{\tau}^{\text{max}}$ -->
     <g transform="translate(25.2 166.04) rotate(-90) scale(0.18 -0.18)">
      <defs>
       <path id="DejaVuSans-303" d="M -1621 4281 
L -1799 4453 
Q -1867 4516 -1919 4545 
Q -1971 4575 -2011 4575 
Q -2130 4575 -2186 4461 
Q -2242 4347 -2249 4091 
L -2639 4091 
Q -2633 4513 -2473 4742 
Q -2314 4972 -2030 4972 
Q -1911 4972 -1811 4928 
Q -1711 4884 -1596 4781 
L -1417 4609 
Q -1349 4547 -1297 4517 
Q -1246 4488 -1205 4488 
Q -1086 4488 -1030 4602 
Q -974 4716 -967 4972 
L -577 4972 
Q -583 4550 -742 4320 
Q -902 4091 -1186 4091 
Q -1305 4091 -1405 4134 
Q -1505 4178 -1621 4281 
z
" transform="scale(0.015625)"/>
       <path id="DejaVuSans-Oblique-44" d="M 1081 4666 
L 2438 4666 
Q 3519 4666 4070 4208 
Q 4622 3750 4622 2847 
Q 4622 2250 4412 1698 
Q 4203 1147 3834 769 
Q 3463 381 2891 190 
Q 2319 0 1538 0 
L 172 0 
L 1081 4666 
z
M 1613 4147 
L 909 519 
L 1734 519 
Q 2794 519 3375 1128 
Q 3956 1738 3956 2847 
Q 3956 3519 3581 3833 
Q 3206 4147 2406 4147 
L 1613 4147 
z
" transform="scale(0.015625)"/>
       <path id="DejaVuSans-2f" d="M 1625 4666 
L 2156 4666 
L 531 -594 
L 0 -594 
L 1625 4666 
z
" transform="scale(0.015625)"/>
       <path id="DejaVuSans-6d" d="M 3328 2828 
Q 3544 3216 3844 3400 
Q 4144 3584 4550 3584 
Q 5097 3584 5394 3201 
Q 5691 2819 5691 2113 
L 5691 0 
L 5113 0 
L 5113 2094 
Q 5113 2597 4934 2840 
Q 4756 3084 4391 3084 
Q 3944 3084 3684 2787 
Q 3425 2491 3425 1978 
L 3425 0 
L 2847 0 
L 2847 2094 
Q 2847 2600 2669 2842 
Q 2491 3084 2119 3084 
Q 1678 3084 1418 2786 
Q 1159 2488 1159 1978 
L 1159 0 
L 581 0 
L 581 3500 
L 1159 3500 
L 1159 2956 
Q 1356 3278 1631 3431 
Q 1906 3584 2284 3584 
Q 2666 3584 2933 3390 
Q 3200 3197 3328 2828 
z
" transform="scale(0.015625)"/>
       <path id="DejaVuSans-61" d="M 2194 1759 
Q 1497 1759 1228 1600 
Q 959 1441 959 1056 
Q 959 750 1161 570 
Q 1363 391 1709 391 
Q 2188 391 2477 730 
Q 2766 1069 2766 1631 
L 2766 1759 
L 2194 1759 
z
M 3341 1997 
L 3341 0 
L 2766 0 
L 2766 531 
Q 2569 213 2275 61 
Q 1981 -91 1556 -91 
Q 1019 -91 701 211 
Q 384 513 384 1019 
Q 384 1609 779 1909 
Q 1175 2209 1959 2209 
L 2766 2209 
L 2766 2266 
Q 2766 2663 2505 2880 
Q 2244 3097 1772 3097 
Q 1472 3097 1187 3025 
Q 903 2953 641 2809 
L 641 3341 
Q 956 3463 1253 3523 
Q 1550 3584 1831 3584 
Q 2591 3584 2966 3190 
Q 3341 2797 3341 1997 
z
" transform="scale(0.015625)"/>
       <path id="DejaVuSans-78" d="M 3513 3500 
L 2247 1797 
L 3578 0 
L 2900 0 
L 1881 1375 
L 863 0 
L 184 0 
L 1544 1831 
L 300 3500 
L 978 3500 
L 1906 2253 
L 2834 3500 
L 3513 3500 
z
" transform="scale(0.015625)"/>
      </defs>
      <use xlink:href="#DejaVuSans-303" transform="translate(73.484863 22.3125)"/>
      <use xlink:href="#DejaVuSans-Oblique-44" transform="translate(0 0.828125)"/>
      <use xlink:href="#DejaVuSans-Oblique-3c4" transform="translate(77.958984 -15.578125) scale(0.7)"/>
      <use xlink:href="#DejaVuSans-2f" transform="translate(122.836914 0.828125)"/>
      <use xlink:href="#DejaVuSans-303" transform="translate(230.013184 22.3125)"/>
      <use xlink:href="#DejaVuSans-Oblique-44" transform="translate(156.52832 0.828125)"/>
      <use xlink:href="#DejaVuSans-6d" transform="translate(234.487305 39.109375) scale(0.7)"/>
      <use xlink:href="#DejaVuSans-61" transform="translate(302.675781 39.109375) scale(0.7)"/>
      <use xlink:href="#DejaVuSans-78" transform="translate(345.571289 39.109375) scale(0.7)"/>
      <use xlink:href="#DejaVuSans-Oblique-3c4" transform="translate(234.487305 -26.515625) scale(0.7)"/>
     </g>
    </g>
   </g>
   <g id="line2d_23">
    <path d="M 397.361875 18.838839 
L 390.684725 19.358502 
L 384.007575 20.397829 
L 377.330425 22.476483 
L 370.653275 24.944885 
L 363.976125 28.972277 
L 357.298975 33.649248 
L 350.621825 39.105715 
L 343.944675 45.731425 
L 337.267525 52.746882 
L 330.590375 60.671751 
L 323.913225 69.116283 
L 317.236075 78.210394 
L 310.558925 87.954085 
L 303.881775 98.087523 
L 297.204625 108.870541 
L 290.527475 120.043306 
L 283.850325 131.605819 
L 277.173175 143.428164 
L 270.496025 155.575298 
L 263.818875 168.047222 
L 257.141725 180.454188 
L 250.464575 192.666281 
L 243.787425 204.553583 
L 237.110275 215.531475 
L 230.433125 224.82046 
L 223.755975 231.44617 
L 217.078825 234.076966 
L 210.401675 232.355581 
L 203.724525 226.70424 
L 197.047375 218.162271 
L 190.370225 207.736522 
L 183.693075 196.238967 
L 177.015925 184.156791 
L 170.338775 171.749825 
L 163.661625 159.2779 
L 156.984475 146.935892 
L 150.307325 134.7238 
L 143.630175 123.031371 
L 136.953025 111.598774 
L 130.275875 100.555925 
L 123.598725 90.032739 
L 116.921575 79.8993 
L 110.244425 70.285525 
L 103.567275 61.191414 
L 96.890125 52.746882 
L 90.212975 44.692098 
L 83.535825 37.286893 
L 76.858675 30.531267 
L 70.181525 24.165389 
L 63.504375 18.449091 
" clip-path="url(#p9e695364f8)" style="fill: none; stroke: #939393; stroke-opacity: 0.7; stroke-linecap: square"/>
   </g>
   <g id="line2d_24">
    <defs>
     <path id="m06f81e9592" d="M 0 1 
C 0.265203 1 0.51958 0.894634 0.707107 0.707107 
C 0.894634 0.51958 1 0.265203 1 0 
C 1 -0.265203 0.894634 -0.51958 0.707107 -0.707107 
C 0.51958 -0.894634 0.265203 -1 0 -1 
C -0.265203 -1 -0.51958 -0.894634 -0.707107 -0.707107 
C -0.894634 -0.51958 -1 -0.265203 -1 0 
C -1 0.265203 -0.894634 0.51958 -0.707107 0.707107 
C -0.51958 0.894634 -0.265203 1 0 1 
z
" style="stroke: #4a4a4a"/>
    </defs>
    <g clip-path="url(#p9e695364f8)">
     <use xlink:href="#m06f81e9592" x="217.078825" y="234.076966" style="fill: #4a4a4a; stroke: #4a4a4a"/>
    </g>
   </g>
   <g id="line2d_25">
    <path d="M 397.361875 18.579007 
L 390.684725 18.838839 
L 384.007575 19.358502 
L 377.330425 20.527745 
L 370.653275 21.95682 
L 363.976125 24.685053 
L 357.298975 28.192782 
L 350.621825 32.609921 
L 343.944675 38.196304 
L 337.267525 44.432266 
L 330.590375 51.837471 
L 323.913225 59.762339 
L 317.236075 68.596619 
L 310.558925 77.950562 
L 303.881775 88.084 
L 297.204625 98.996934 
L 290.527475 110.299615 
L 283.850325 122.12196 
L 277.173175 134.593884 
L 270.496025 147.455556 
L 263.818875 160.512101 
L 257.141725 173.763521 
L 250.464575 187.144856 
L 243.787425 200.331317 
L 237.110275 213.063073 
L 230.433125 224.723023 
L 223.755975 234.401756 
L 217.078825 240.507802 
L 210.401675 241.384734 
L 203.724525 236.837678 
L 197.047375 228.263231 
L 190.370225 217.285339 
L 183.693075 205.073247 
L 177.015925 192.146617 
L 170.338775 179.025114 
L 163.661625 165.838652 
L 156.984475 152.782107 
L 150.307325 140.050351 
L 143.630175 127.578427 
L 136.953025 115.49625 
L 130.275875 103.933737 
L 123.598725 92.890888 
L 116.921575 82.367702 
L 110.244425 72.234264 
L 103.567275 62.88032 
L 96.890125 54.046041 
L 90.212975 45.731425 
L 83.535825 37.936472 
L 76.858675 30.921015 
L 70.181525 24.295305 
L 63.504375 18.449091 
" clip-path="url(#p9e695364f8)" style="fill: none; stroke: #939393; stroke-opacity: 0.7; stroke-linecap: square"/>
   </g>
   <g id="line2d_26">
    <g clip-path="url(#p9e695364f8)">
     <use xlink:href="#m06f81e9592" x="210.401675" y="241.384734" style="fill: #4a4a4a; stroke: #4a4a4a"/>
    </g>
   </g>
   <g id="line2d_27">
    <path d="M 397.361875 18.579007 
L 390.684725 18.968754 
L 384.007575 19.878166 
L 377.330425 21.437156 
L 370.653275 24.035474 
L 363.976125 27.023539 
L 357.298975 31.440679 
L 350.621825 36.247566 
L 343.944675 42.223696 
L 337.267525 48.849406 
L 330.590375 56.514443 
L 323.913225 64.699143 
L 317.236075 73.793254 
L 310.558925 83.407029 
L 303.881775 93.800299 
L 297.204625 104.973064 
L 290.527475 116.535577 
L 283.850325 128.487838 
L 277.173175 141.089678 
L 270.496025 153.886392 
L 263.818875 167.007895 
L 257.141725 180.064441 
L 250.464575 193.185944 
L 243.787425 205.852742 
L 237.110275 217.740045 
L 230.433125 228.133315 
L 223.755975 235.700914 
L 217.078825 239.111206 
L 210.401675 237.649653 
L 203.724525 231.641043 
L 197.047375 222.417016 
L 190.370225 211.244251 
L 183.693075 198.967201 
L 177.015925 186.235445 
L 170.338775 173.373773 
L 163.661625 160.512101 
L 156.984475 147.845303 
L 150.307325 135.373379 
L 143.630175 123.421119 
L 136.953025 111.858606 
L 130.275875 100.555925 
L 123.598725 89.902823 
L 116.921575 79.769384 
L 110.244425 70.025694 
L 103.567275 61.191414 
L 96.890125 52.616966 
L 90.212975 44.692098 
L 83.535825 37.156977 
L 76.858675 30.271436 
L 70.181525 24.165389 
L 63.504375 18.449091 
" clip-path="url(#p9e695364f8)" style="fill: none; stroke: #939393; stroke-opacity: 0.7; stroke-linecap: square"/>
   </g>
   <g id="line2d_28">
    <g clip-path="url(#p9e695364f8)">
     <use xlink:href="#m06f81e9592" x="217.078825" y="239.111206" style="fill: #4a4a4a; stroke: #4a4a4a"/>
    </g>
   </g>
   <g id="line2d_29">
    <path d="M 397.361875 18.449091 
L 390.684725 18.708923 
L 384.007575 19.358502 
L 377.330425 20.657661 
L 370.653275 22.866231 
L 363.976125 25.854296 
L 357.298975 29.102193 
L 350.621825 34.298828 
L 343.944675 39.105715 
L 337.267525 45.211761 
L 330.590375 52.097303 
L 323.913225 59.632424 
L 317.236075 67.817124 
L 310.558925 77.041151 
L 303.881775 86.52501 
L 297.204625 96.91828 
L 290.527475 107.831214 
L 283.850325 119.263811 
L 277.173175 131.216071 
L 270.496025 143.428164 
L 263.818875 156.159919 
L 257.141725 168.956633 
L 250.464575 181.753347 
L 243.787425 194.355187 
L 237.110275 206.372405 
L 230.433125 217.350297 
L 223.755975 226.346971 
L 217.078825 232.290623 
L 210.401675 234.076966 
L 203.724525 231.153859 
L 197.047375 224.235838 
L 190.370225 214.687022 
L 183.693075 203.38434 
L 177.015925 191.237206 
L 170.338775 178.570408 
L 163.661625 165.838652 
L 156.984475 153.041938 
L 150.307325 140.440098 
L 143.630175 128.09809 
L 136.953025 116.14583 
L 130.275875 104.583317 
L 123.598725 93.540467 
L 116.921575 82.887365 
L 110.244425 72.883843 
L 103.567275 63.270068 
L 96.890125 54.565704 
L 90.212975 46.121172 
L 83.535825 38.32622 
L 76.858675 31.180847 
L 70.181525 24.425221 
L 63.504375 18.449091 
" clip-path="url(#p9e695364f8)" style="fill: none; stroke: #939393; stroke-opacity: 0.7; stroke-linecap: square"/>
   </g>
   <g id="line2d_30">
    <g clip-path="url(#p9e695364f8)">
     <use xlink:href="#m06f81e9592" x="210.401675" y="234.076966" style="fill: #4a4a4a; stroke: #4a4a4a"/>
    </g>
   </g>
   <g id="line2d_31">
    <path d="M 397.361875 18.579007 
L 390.684725 18.968754 
L 384.007575 19.618334 
L 377.330425 20.917493 
L 370.653275 22.996147 
L 363.976125 25.984212 
L 357.298975 29.751772 
L 350.621825 34.688575 
L 343.944675 40.53479 
L 337.267525 46.900668 
L 330.590375 54.435789 
L 323.913225 62.490573 
L 317.236075 71.194937 
L 310.558925 80.678795 
L 303.881775 90.682318 
L 297.204625 101.465336 
L 290.527475 112.638101 
L 283.850325 124.33053 
L 277.173175 136.412706 
L 270.496025 149.014546 
L 263.818875 161.876218 
L 257.141725 174.932763 
L 250.464575 187.924351 
L 243.787425 200.786023 
L 237.110275 213.128031 
L 230.433125 224.203359 
L 223.755975 233.200034 
L 217.078825 238.494106 
L 210.401675 238.851374 
L 203.724525 234.27184 
L 197.047375 226.054661 
L 190.370225 215.531475 
L 183.693075 203.644172 
L 177.015925 191.10729 
L 170.338775 178.115702 
L 163.661625 165.189073 
L 156.984475 152.327401 
L 150.307325 139.790519 
L 143.630175 127.448511 
L 136.953025 115.49625 
L 130.275875 103.933737 
L 123.598725 92.890888 
L 116.921575 82.367702 
L 110.244425 72.494095 
L 103.567275 63.010236 
L 96.890125 54.175957 
L 90.212975 45.861341 
L 83.535825 38.196304 
L 76.858675 31.050931 
L 70.181525 24.425221 
L 63.504375 18.449091 
" clip-path="url(#p9e695364f8)" style="fill: none; stroke: #939393; stroke-opacity: 0.7; stroke-linecap: square"/>
   </g>
   <g id="line2d_32">
    <g clip-path="url(#p9e695364f8)">
     <use xlink:href="#m06f81e9592" x="210.401675" y="238.851374" style="fill: #4a4a4a; stroke: #4a4a4a"/>
    </g>
   </g>
   <g id="line2d_33">
    <path d="M 397.361875 18.968754 
L 390.684725 19.488418 
L 384.007575 20.787577 
L 377.330425 22.866231 
L 370.653275 25.984212 
L 363.976125 29.881688 
L 357.298975 35.208239 
L 350.621825 40.794622 
L 343.944675 47.550247 
L 337.267525 54.825536 
L 330.590375 63.010236 
L 323.913225 71.844516 
L 317.236075 81.328375 
L 310.558925 91.331897 
L 303.881775 102.114915 
L 297.204625 113.157764 
L 290.527475 124.980109 
L 283.850325 136.93237 
L 277.173175 149.53421 
L 270.496025 162.265966 
L 263.818875 175.257553 
L 257.141725 188.314099 
L 250.464575 201.305686 
L 243.787425 213.907526 
L 237.110275 225.567476 
L 230.433125 235.473562 
L 223.755975 242.034313 
L 217.078825 243.430909 
L 210.401675 239.435996 
L 203.724525 231.478649 
L 197.047375 221.052899 
L 190.370225 209.360471 
L 183.693075 196.823589 
L 177.015925 183.961917 
L 170.338775 171.165203 
L 163.661625 158.368489 
L 156.984475 145.766649 
L 150.307325 133.554557 
L 143.630175 121.602296 
L 136.953025 110.039783 
L 130.275875 99.256766 
L 123.598725 88.603664 
L 116.921575 78.600141 
L 110.244425 69.246198 
L 103.567275 60.152087 
L 96.890125 51.967387 
L 90.212975 44.042518 
L 83.535825 36.897145 
L 76.858675 30.14152 
L 70.181525 24.035474 
L 63.504375 18.449091 
" clip-path="url(#p9e695364f8)" style="fill: none; stroke: #939393; stroke-opacity: 0.7; stroke-linecap: square"/>
   </g>
   <g id="line2d_34">
    <g clip-path="url(#p9e695364f8)">
     <use xlink:href="#m06f81e9592" x="217.078825" y="243.430909" style="fill: #4a4a4a; stroke: #4a4a4a"/>
    </g>
   </g>
   <g id="line2d_35">
    <path d="M 397.361875 18.449091 
L 390.684725 18.838839 
L 384.007575 19.358502 
L 377.330425 20.657661 
L 370.653275 23.126062 
L 363.976125 26.763707 
L 357.298975 30.921015 
L 350.621825 36.637314 
L 343.944675 42.353612 
L 337.267525 49.239154 
L 330.590375 56.90419 
L 323.913225 64.958975 
L 317.236075 73.663338 
L 310.558925 83.147197 
L 303.881775 93.280635 
L 297.204625 103.933737 
L 290.527475 115.236418 
L 283.850325 126.928847 
L 277.173175 139.14094 
L 270.496025 151.74278 
L 263.818875 164.604451 
L 257.141725 177.660997 
L 250.464575 190.717542 
L 243.787425 203.514256 
L 237.110275 215.726349 
L 230.433125 226.671761 
L 223.755975 235.278688 
L 217.078825 239.890701 
L 210.401675 239.371038 
L 203.724525 233.849613 
L 197.047375 224.917897 
L 190.370225 213.907526 
L 183.693075 201.890308 
L 177.015925 189.22351 
L 170.338775 176.361838 
L 163.661625 163.435208 
L 156.984475 150.703453 
L 150.307325 138.101613 
L 143.630175 125.88952 
L 136.953025 114.067176 
L 130.275875 102.764494 
L 123.598725 91.851561 
L 116.921575 81.458291 
L 110.244425 71.584684 
L 103.567275 62.360657 
L 96.890125 53.396462 
L 90.212975 45.341677 
L 83.535825 37.806556 
L 76.858675 30.791099 
L 70.181525 24.165389 
L 63.504375 18.449091 
" clip-path="url(#p9e695364f8)" style="fill: none; stroke: #939393; stroke-opacity: 0.7; stroke-linecap: square"/>
   </g>
   <g id="line2d_36">
    <g clip-path="url(#p9e695364f8)">
     <use xlink:href="#m06f81e9592" x="217.078825" y="239.890701" style="fill: #4a4a4a; stroke: #4a4a4a"/>
    </g>
   </g>
   <g id="line2d_37">
    <path d="M 397.361875 18.449091 
L 390.684725 18.838839 
L 384.007575 19.228586 
L 377.330425 20.267913 
L 370.653275 21.826904 
L 363.976125 24.555137 
L 357.298975 28.322697 
L 350.621825 32.35009 
L 343.944675 38.066388 
L 337.267525 43.782687 
L 330.590375 51.187892 
L 323.913225 58.852928 
L 317.236075 67.427376 
L 310.558925 76.781319 
L 303.881775 86.654926 
L 297.204625 97.308028 
L 290.527475 108.610709 
L 283.850325 120.433054 
L 277.173175 132.775062 
L 270.496025 145.506818 
L 263.818875 158.628321 
L 257.141725 172.009656 
L 250.464575 185.455949 
L 243.787425 198.707369 
L 237.110275 211.569041 
L 230.433125 223.358906 
L 223.755975 233.102597 
L 217.078825 239.273601 
L 210.401675 240.442844 
L 203.724525 236.382973 
L 197.047375 228.198273 
L 190.370225 217.415255 
L 183.693075 205.268121 
L 177.015925 192.406449 
L 170.338775 179.219987 
L 163.661625 166.033526 
L 156.984475 152.97698 
L 150.307325 140.180267 
L 143.630175 127.708343 
L 136.953025 115.626166 
L 130.275875 104.063653 
L 123.598725 92.890888 
L 116.921575 82.237786 
L 110.244425 72.364179 
L 103.567275 62.88032 
L 96.890125 53.916125 
L 90.212975 45.601509 
L 83.535825 37.936472 
L 76.858675 30.921015 
L 70.181525 24.165389 
L 63.504375 18.449091 
" clip-path="url(#p9e695364f8)" style="fill: none; stroke: #939393; stroke-opacity: 0.7; stroke-linecap: square"/>
   </g>
   <g id="line2d_38">
    <g clip-path="url(#p9e695364f8)">
     <use xlink:href="#m06f81e9592" x="210.401675" y="240.442844" style="fill: #4a4a4a; stroke: #4a4a4a"/>
    </g>
   </g>
   <g id="line2d_39">
    <path d="M 397.361875 18.579007 
L 390.684725 18.838839 
L 384.007575 19.488418 
L 377.330425 20.657661 
L 370.653275 22.866231 
L 363.976125 25.594464 
L 357.298975 29.362024 
L 350.621825 34.168912 
L 343.944675 39.755295 
L 337.267525 46.121172 
L 330.590375 53.526377 
L 323.913225 61.711078 
L 317.236075 70.415441 
L 310.558925 79.8993 
L 303.881775 90.032739 
L 297.204625 100.815756 
L 290.527475 112.118437 
L 283.850325 123.940782 
L 277.173175 136.28279 
L 270.496025 149.014546 
L 263.818875 161.941176 
L 257.141725 175.192595 
L 250.464575 188.444015 
L 243.787425 201.435602 
L 237.110275 214.037442 
L 230.433125 225.534997 
L 223.755975 234.953898 
L 217.078825 240.442844 
L 210.401675 240.540281 
L 203.724525 235.570999 
L 197.047375 226.899114 
L 190.370225 215.98618 
L 183.693075 203.774088 
L 177.015925 191.042332 
L 170.338775 177.985787 
L 163.661625 164.929241 
L 156.984475 151.937653 
L 150.307325 139.270856 
L 143.630175 126.928847 
L 136.953025 114.976587 
L 130.275875 103.54399 
L 123.598725 92.50114 
L 116.921575 81.848038 
L 110.244425 71.974432 
L 103.567275 62.490573 
L 96.890125 53.786209 
L 90.212975 45.601509 
L 83.535825 37.936472 
L 76.858675 30.791099 
L 70.181525 24.165389 
L 63.504375 18.449091 
" clip-path="url(#p9e695364f8)" style="fill: none; stroke: #939393; stroke-opacity: 0.7; stroke-linecap: square"/>
   </g>
   <g id="line2d_40">
    <g clip-path="url(#p9e695364f8)">
     <use xlink:href="#m06f81e9592" x="210.401675" y="240.540281" style="fill: #4a4a4a; stroke: #4a4a4a"/>
    </g>
   </g>
   <g id="line2d_41">
    <path d="M 397.361875 18.449091 
L 390.684725 18.708923 
L 384.007575 19.228586 
L 377.330425 20.267913 
L 370.653275 21.95682 
L 363.976125 24.425221 
L 357.298975 27.93295 
L 350.621825 32.35009 
L 343.944675 37.676641 
L 337.267525 44.042518 
L 330.590375 50.92806 
L 323.913225 58.723012 
L 317.236075 67.167544 
L 310.558925 76.391572 
L 303.881775 86.265178 
L 297.204625 96.788364 
L 290.527475 107.831214 
L 283.850325 119.523642 
L 277.173175 131.605819 
L 270.496025 144.207659 
L 263.818875 157.134288 
L 257.141725 170.255792 
L 250.464575 183.507211 
L 243.787425 196.563757 
L 237.110275 209.100639 
L 230.433125 220.695631 
L 223.755975 230.341885 
L 217.078825 236.707763 
L 210.401675 238.396669 
L 203.724525 234.88894 
L 197.047375 227.191425 
L 190.370225 216.895591 
L 183.693075 205.008289 
L 177.015925 192.406449 
L 170.338775 179.414861 
L 163.661625 166.358316 
L 156.984475 153.366728 
L 150.307325 140.69993 
L 143.630175 128.09809 
L 136.953025 116.015914 
L 130.275875 104.453401 
L 123.598725 93.280635 
L 116.921575 82.75745 
L 110.244425 72.624011 
L 103.567275 63.010236 
L 96.890125 54.175957 
L 90.212975 45.861341 
L 83.535825 38.066388 
L 76.858675 31.050931 
L 70.181525 24.425221 
L 63.504375 18.449091 
" clip-path="url(#p9e695364f8)" style="fill: none; stroke: #939393; stroke-opacity: 0.7; stroke-linecap: square"/>
   </g>
   <g id="line2d_42">
    <g clip-path="url(#p9e695364f8)">
     <use xlink:href="#m06f81e9592" x="210.401675" y="238.396669" style="fill: #4a4a4a; stroke: #4a4a4a"/>
    </g>
   </g>
   <g id="line2d_43">
    <path d="M 210.401675 254.68 
L 210.401675 7.2 
" clip-path="url(#p9e695364f8)" style="fill: none; stroke-dasharray: 3.7,1.6; stroke-dashoffset: 0; stroke: #ff0000; stroke-opacity: 0.8"/>
   </g>
   <g id="patch_3">
    <path d="M 63.504375 254.68 
L 63.504375 7.2 
" style="fill: none; stroke: #000000; stroke-width: 0.8; stroke-linejoin: miter; stroke-linecap: square"/>
   </g>
   <g id="patch_4">
    <path d="M 397.361875 254.68 
L 397.361875 7.2 
" style="fill: none; stroke: #000000; stroke-width: 0.8; stroke-linejoin: miter; stroke-linecap: square"/>
   </g>
   <g id="patch_5">
    <path d="M 63.504375 254.68 
L 397.361875 254.68 
" style="fill: none; stroke: #000000; stroke-width: 0.8; stroke-linejoin: miter; stroke-linecap: square"/>
   </g>
   <g id="patch_6">
    <path d="M 63.504375 7.2 
L 397.361875 7.2 
" style="fill: none; stroke: #000000; stroke-width: 0.8; stroke-linejoin: miter; stroke-linecap: square"/>
   </g>
  </g>
 </g>
 <defs>
  <clipPath id="p9e695364f8">
   <rect x="63.504375" y="7.2" width="333.8575" height="247.48"/>
  </clipPath>
 </defs>
</svg>
